<svg width="29" height="29" viewBox="0 0 29 29" fill="none" xmlns="http://www.w3.org/2000/svg">
<g clip-path="url(#clip0_1829_97166)">
<path d="M21.9519 0H6.36492C2.84938 0 0 2.85531 0 6.37745V21.9387C0 25.4608 2.84938 28.3169 6.36492 28.3169H21.9526C25.4675 28.3161 28.3169 25.4608 28.3169 21.9387V6.37745C28.3169 2.85531 25.4675 0 21.9519 0ZM7.90819 22.4743C7.64484 22.9255 7.17124 23.1759 6.6849 23.1759C6.44208 23.1759 6.19573 23.1135 5.97061 22.9815C5.29596 22.585 5.06943 21.716 5.46515 21.0406L5.67116 20.688C6.03574 20.5731 6.41943 20.5107 6.81374 20.522H6.81728C7.54149 20.5433 8.14747 20.8718 8.5616 21.3563L7.90819 22.4743ZM15.8666 19.1011H4.95545C4.1739 19.1011 3.53961 18.4655 3.53961 17.6823C3.53961 16.8992 4.1739 16.2636 4.95545 16.2636H8.2579L12.4106 9.16253L11.1285 6.96979C10.7328 6.29374 10.9593 5.42473 11.634 5.02818C12.3086 4.63234 13.1758 4.85864 13.5716 5.53469L14.0515 6.35546L14.5315 5.53469C14.9265 4.85864 15.7937 4.63234 16.4691 5.02818C17.1437 5.42473 17.3703 6.29374 16.9745 6.96979L11.5398 16.2636H14.4989C14.9414 16.5587 15.3215 16.9488 15.5955 17.427L15.5976 17.4298C15.9091 17.9725 15.9778 18.5599 15.8666 19.1011ZM23.3614 19.1011H21.5045L22.6386 21.0399C23.0343 21.7152 22.8078 22.585 22.1332 22.9808C21.908 23.1135 21.6617 23.1752 21.4189 23.1752C20.9325 23.1752 20.4596 22.924 20.1956 22.4736L15.8412 15.0271C15.2508 13.9282 15.2727 12.596 15.9183 11.5205L16.5031 10.5466L19.8452 16.2636H23.3614C24.143 16.2636 24.7772 16.8992 24.7772 17.6823C24.7772 18.4655 24.143 19.1011 23.3614 19.1011Z" fill="#34495E"/>
</g>
<defs>
<clipPath id="clip0_1829_97166">
<rect width="28.3169" height="28.3169" fill="white"/>
</clipPath>
</defs>
</svg>
