<svg width="35" height="35" viewBox="0 0 35 35" fill="none" xmlns="http://www.w3.org/2000/svg">
<path d="M8.75 21.875H30.625" stroke="#34495E" stroke-width="2.91667" stroke-linecap="round" stroke-linejoin="round"/>
<path d="M30.625 27.7085H8.75" stroke="#34495E" stroke-width="2.91667" stroke-linecap="round" stroke-linejoin="round"/>
<path d="M21.875 16.042H30.625" stroke="#34495E" stroke-width="2.91667" stroke-linecap="round" stroke-linejoin="round"/>
<path d="M30.625 10.2085H21.875" stroke="#34495E" stroke-width="2.91667" stroke-linecap="round" stroke-linejoin="round"/>
<path d="M13.125 13.1252H14.5833C14.8718 13.1252 15.1537 13.2107 15.3935 13.3709C15.6334 13.5312 15.8203 13.7589 15.9307 14.0254C16.041 14.2919 16.0699 14.5851 16.0136 14.868C15.9574 15.1509 15.8185 15.4107 15.6145 15.6147C15.4106 15.8186 15.1507 15.9575 14.8678 16.0138C14.585 16.0701 14.2917 16.0412 14.0253 15.9308C13.7588 15.8204 13.531 15.6335 13.3708 15.3937C13.2105 15.1539 13.125 14.8719 13.125 14.5835V10.9377C13.125 10.1641 13.4323 9.42225 13.9793 8.87527C14.5263 8.32829 15.2681 8.021 16.0417 8.021" stroke="#34495E" stroke-width="2.91667" stroke-linecap="round" stroke-linejoin="round"/>
<path d="M4.375 13.1252H5.83333C6.12176 13.1252 6.40372 13.2107 6.64354 13.3709C6.88336 13.5312 7.07028 13.7589 7.18066 14.0254C7.29104 14.2919 7.31992 14.5851 7.26365 14.868C7.20738 15.1509 7.06848 15.4107 6.86453 15.6147C6.66058 15.8186 6.40073 15.9575 6.11784 16.0138C5.83495 16.0701 5.54173 16.0412 5.27525 15.9308C5.00878 15.8204 4.78102 15.6335 4.62077 15.3937C4.46053 15.1539 4.375 14.8719 4.375 14.5835V10.9377C4.375 10.1641 4.68229 9.42225 5.22927 8.87527C5.77625 8.32829 6.51812 8.021 7.29167 8.021" stroke="#34495E" stroke-width="2.91667" stroke-linecap="round" stroke-linejoin="round"/>
</svg>
