<svg width="73" height="106" viewBox="0 0 73 106" fill="none" xmlns="http://www.w3.org/2000/svg">
<path d="M21.5999 5.05009C20.4499 6.20009 18.5899 6.20009 17.4399 5.05009C16.2899 3.90009 16.2899 2.04009 17.4399 0.890088C18.5899 -0.259912 20.4499 -0.259912 21.5999 0.890088C22.7499 2.04009 22.7499 3.90009 21.5999 5.05009ZM34.0399 13.3301C32.8899 12.1801 31.0299 12.1801 29.8799 13.3301C28.7299 14.4801 28.7299 16.3401 29.8799 17.4901C31.0299 18.6401 32.8899 18.6401 34.0399 17.4901C35.1899 16.3401 35.1899 14.4801 34.0399 13.3301ZM46.4799 25.7701C45.3299 24.6201 43.4699 24.6201 42.3199 25.7701C41.1699 26.9201 41.1699 28.7801 42.3199 29.9301C43.4699 31.0801 45.3299 31.0801 46.4799 29.9301C47.6299 28.7801 47.6299 26.9201 46.4799 25.7701ZM58.9199 38.2101C57.7699 37.0601 55.9099 37.0601 54.7599 38.2101C53.6099 39.3601 53.6099 41.2201 54.7599 42.3701C55.9099 43.5201 57.7699 43.5201 58.9199 42.3701C60.0699 41.2201 60.0699 39.3601 58.9199 38.2101ZM71.3599 50.6501C70.2099 49.5001 68.3499 49.5001 67.1999 50.6501C66.0499 51.8001 66.0499 53.6601 67.1999 54.8101C68.3499 55.9601 70.2099 55.9601 71.3599 54.8101C72.4999 53.6601 72.4999 51.8001 71.3599 50.6501ZM9.15989 13.3301C8.00988 12.1801 6.14988 12.1801 4.99988 13.3301C3.84988 14.4801 3.84988 16.3401 4.99988 17.4901C6.14988 18.6401 8.00988 18.6401 9.15989 17.4901C10.3099 16.3401 10.3099 14.4801 9.15989 13.3301ZM21.5999 25.7701C20.4499 24.6201 18.5899 24.6201 17.4399 25.7701C16.2899 26.9201 16.2899 28.7801 17.4399 29.9301C18.5899 31.0801 20.4499 31.0801 21.5999 29.9301C22.7499 28.7801 22.7499 26.9201 21.5999 25.7701ZM34.0399 38.2101C32.8899 37.0601 31.0299 37.0601 29.8799 38.2101C28.7299 39.3601 28.7299 41.2201 29.8799 42.3701C31.0299 43.5201 32.8899 43.5201 34.0399 42.3701C35.1899 41.2201 35.1899 39.3601 34.0399 38.2101ZM46.4799 50.6501C45.3299 49.5001 43.4699 49.5001 42.3199 50.6501C41.1699 51.8001 41.1699 53.6601 42.3199 54.8101C43.4699 55.9601 45.3299 55.9601 46.4799 54.8101C47.6299 53.6601 47.6299 51.8001 46.4799 50.6501ZM58.9199 63.0901C57.7699 61.9401 55.9099 61.9401 54.7599 63.0901C53.6099 64.2401 53.6099 66.1001 54.7599 67.2501C55.9099 68.4001 57.7699 68.4001 58.9199 67.2501C60.0699 66.1001 60.0699 64.2401 58.9199 63.0901ZM-3.28012 25.7701C-4.43012 24.6201 -6.29012 24.6201 -7.44012 25.7701C-8.59012 26.9201 -8.59012 28.7801 -7.44012 29.9301C-6.29012 31.0801 -4.43012 31.0801 -3.28012 29.9301C-2.13012 28.7801 -2.13012 26.9201 -3.28012 25.7701ZM9.15989 38.2101C8.00988 37.0601 6.14988 37.0601 4.99988 38.2101C3.84988 39.3601 3.84988 41.2201 4.99988 42.3701C6.14988 43.5201 8.00988 43.5201 9.15989 42.3701C10.3099 41.2201 10.3099 39.3601 9.15989 38.2101ZM21.5999 50.6501C20.4499 49.5001 18.5899 49.5001 17.4399 50.6501C16.2899 51.8001 16.2899 53.6601 17.4399 54.8101C18.5899 55.9601 20.4499 55.9601 21.5999 54.8101C22.7499 53.6601 22.7499 51.8001 21.5999 50.6501ZM34.0399 63.0901C32.8899 61.9401 31.0299 61.9401 29.8799 63.0901C28.7299 64.2401 28.7299 66.1001 29.8799 67.2501C31.0299 68.4001 32.8899 68.4001 34.0399 67.2501C35.1899 66.1001 35.1899 64.2401 34.0399 63.0901ZM46.4799 75.5301C45.3299 74.3801 43.4699 74.3801 42.3199 75.5301C41.1699 76.6801 41.1699 78.5401 42.3199 79.6901C43.4699 80.8401 45.3299 80.8401 46.4799 79.6901C47.6299 78.5401 47.6299 76.6701 46.4799 75.5301ZM-15.7201 38.2101C-16.8701 37.0601 -18.7301 37.0601 -19.8801 38.2101C-21.0301 39.3601 -21.0301 41.2201 -19.8801 42.3701C-18.7301 43.5201 -16.8701 43.5201 -15.7201 42.3701C-14.5701 41.2201 -14.5701 39.3601 -15.7201 38.2101ZM-3.28012 50.6501C-4.43012 49.5001 -6.29012 49.5001 -7.44012 50.6501C-8.59012 51.8001 -8.59012 53.6601 -7.44012 54.8101C-6.29012 55.9601 -4.43012 55.9601 -3.28012 54.8101C-2.13012 53.6601 -2.13012 51.8001 -3.28012 50.6501ZM9.15989 63.0901C8.00988 61.9401 6.14988 61.9401 4.99988 63.0901C3.84988 64.2401 3.84988 66.1001 4.99988 67.2501C6.14988 68.4001 8.00988 68.4001 9.15989 67.2501C10.3099 66.1001 10.3099 64.2401 9.15989 63.0901ZM21.5999 75.5301C20.4499 74.3801 18.5899 74.3801 17.4399 75.5301C16.2899 76.6801 16.2899 78.5401 17.4399 79.6901C18.5899 80.8401 20.4499 80.8401 21.5999 79.6901C22.7499 78.5401 22.7499 76.6701 21.5999 75.5301ZM34.0399 87.9701C32.8899 86.8201 31.0299 86.8201 29.8799 87.9701C28.7299 89.1201 28.7299 90.9801 29.8799 92.1301C31.0299 93.2801 32.8899 93.2801 34.0399 92.1301C35.1899 90.9801 35.1899 89.1101 34.0399 87.9701ZM-28.1601 50.6501C-29.3101 49.5001 -31.1701 49.5001 -32.3201 50.6501C-33.4701 51.8001 -33.4701 53.6601 -32.3201 54.8101C-31.1701 55.9601 -29.3101 55.9601 -28.1601 54.8101C-27.0101 53.6601 -27.0101 51.8001 -28.1601 50.6501ZM-15.7201 63.0901C-16.8701 61.9401 -18.7301 61.9401 -19.8801 63.0901C-21.0301 64.2401 -21.0301 66.1001 -19.8801 67.2501C-18.7301 68.4001 -16.8701 68.4001 -15.7201 67.2501C-14.5701 66.1001 -14.5701 64.2401 -15.7201 63.0901ZM-3.28012 75.5301C-4.43012 74.3801 -6.29012 74.3801 -7.44012 75.5301C-8.59012 76.6801 -8.59012 78.5401 -7.44012 79.6901C-6.29012 80.8401 -4.43012 80.8401 -3.28012 79.6901C-2.13012 78.5401 -2.13012 76.6701 -3.28012 75.5301ZM9.15989 87.9701C8.00988 86.8201 6.14988 86.8201 4.99988 87.9701C3.84988 89.1201 3.84988 90.9801 4.99988 92.1301C6.14988 93.2801 8.00988 93.2801 9.15989 92.1301C10.3099 90.9801 10.3099 89.1101 9.15989 87.9701ZM21.5999 100.4C20.4499 99.2501 18.5899 99.2501 17.4399 100.4C16.2899 101.55 16.2899 103.41 17.4399 104.56C18.5899 105.71 20.4499 105.71 21.5999 104.56C22.7499 103.42 22.7499 101.55 21.5999 100.4Z" fill="#F8F9FA" fill-opacity="0.9"/>
</svg>
