<svg width="25" height="26" viewBox="0 0 25 26" fill="none" xmlns="http://www.w3.org/2000/svg">
<path d="M21.25 16.875C20.9093 16.8757 20.5791 16.757 20.3167 16.5396L12.5 10.0063L4.66877 16.3063C4.5196 16.4274 4.34796 16.5179 4.16372 16.5725C3.97947 16.627 3.78626 16.6447 3.59517 16.6243C3.40409 16.604 3.21891 16.5461 3.05027 16.454C2.88164 16.3619 2.73287 16.2373 2.61252 16.0875C2.49138 15.9383 2.40092 15.7667 2.34633 15.5825C2.29175 15.3982 2.27411 15.205 2.29444 15.0139C2.31477 14.8228 2.37266 14.6377 2.46479 14.469C2.55691 14.3004 2.68146 14.1516 2.83127 14.0313L11.5813 6.98752C11.8422 6.77302 12.1695 6.65576 12.5073 6.65576C12.8451 6.65576 13.1724 6.77302 13.4334 6.98752L22.1834 14.2792C22.331 14.4016 22.4531 14.552 22.5426 14.7216C22.632 14.8913 22.6872 15.077 22.7048 15.268C22.7224 15.459 22.7021 15.6516 22.6452 15.8348C22.5883 16.0179 22.4957 16.1881 22.3729 16.3354C22.2372 16.5027 22.0662 16.6379 21.872 16.7312C21.6778 16.8245 21.4654 16.8736 21.25 16.875Z" fill="#337AB7"/>
</svg>
