<svg width="25" height="26" viewBox="0 0 25 26" fill="none" xmlns="http://www.w3.org/2000/svg">
<path d="M3.74997 9.12499C4.09072 9.12432 4.42094 9.24299 4.68331 9.4604L12.5 15.9937L20.3312 9.69374C20.4804 9.5726 20.652 9.48213 20.8363 9.42755C21.0205 9.37296 21.2137 9.35532 21.4048 9.37565C21.5959 9.39598 21.7811 9.45387 21.9497 9.546C22.1184 9.63813 22.2671 9.76268 22.3875 9.91249C22.5086 10.0617 22.5991 10.2333 22.6537 10.4175C22.7083 10.6018 22.7259 10.795 22.7056 10.9861C22.6852 11.1772 22.6273 11.3623 22.5352 11.531C22.4431 11.6996 22.3185 11.8484 22.1687 11.9687L13.4187 19.0125C13.1578 19.227 12.8305 19.3442 12.4927 19.3442C12.1549 19.3442 11.8276 19.227 11.5666 19.0125L2.81664 11.7208C2.66898 11.5984 2.54691 11.448 2.45744 11.2784C2.36796 11.1087 2.31284 10.923 2.29523 10.732C2.27762 10.541 2.29787 10.3484 2.35481 10.1652C2.41175 9.98207 2.50426 9.81193 2.62706 9.66457C2.76276 9.49728 2.93384 9.36213 3.128 9.26883C3.32216 9.17554 3.53457 9.12641 3.74997 9.12499Z" fill="#34495E"/>
</svg>
