<svg width="26" height="29" viewBox="0 0 26 29" fill="none" xmlns="http://www.w3.org/2000/svg">
<path d="M4.74263 0.360876C4.01314 -0.078261 3.14371 -0.117529 2.38545 0.24805L15.0989 12.9885L19.2557 8.81232L4.74263 0.360876ZM1.21737 1.42719C1.05698 1.76678 0.970703 2.14452 0.970703 2.53333V25.8386C0.970703 26.229 1.05753 26.6012 1.21958 26.9336L13.928 14.1649L1.21737 1.42719ZM15.1006 15.3396L2.40763 28.0929C2.74445 28.2488 3.10284 28.3169 3.46068 28.3169C3.90258 28.3169 4.34337 28.2112 4.74269 27.9712L19.2585 19.507L15.1006 15.3396ZM24.7831 12.0312C24.7782 12.0279 24.7726 12.0245 24.7677 12.0218L20.738 9.67511L16.2709 14.1633L20.7408 18.6426C20.7408 18.6426 24.7782 16.2887 24.7831 16.2859C25.5326 15.8308 25.98 15.0355 25.98 14.1583C25.98 13.2811 25.5326 12.4858 24.7831 12.0312Z" fill="#34495E"/>
</svg>
