<svg width="25" height="25" viewBox="0 0 25 25" fill="none" xmlns="http://www.w3.org/2000/svg">
<path d="M3.125 9.43438V17.1875C3.125 18.0163 3.45424 18.8112 4.04029 19.3972C4.62634 19.9833 5.4212 20.3125 6.25 20.3125H18.75C19.5788 20.3125 20.3737 19.9833 20.9597 19.3972C21.5458 18.8112 21.875 18.0163 21.875 17.1875V7.8125C21.875 6.9837 21.5458 6.18884 20.9597 5.60279C20.3737 5.01674 19.5788 4.6875 18.75 4.6875H6.25C5.4212 4.6875 4.62634 5.01674 4.04029 5.60279C3.45424 6.18884 3.125 6.9837 3.125 7.8125V9.43438ZM6.25 6.25H18.75C19.1644 6.25 19.5618 6.41462 19.8549 6.70765C20.1479 7.00067 20.3125 7.3981 20.3125 7.8125V8.96875L12.5 13.175L4.6875 8.96875V7.8125C4.6875 7.3981 4.85212 7.00067 5.14515 6.70765C5.43817 6.41462 5.8356 6.25 6.25 6.25ZM4.6875 10.7438L12.1297 14.75C12.2435 14.8113 12.3707 14.8433 12.5 14.8433C12.6293 14.8433 12.7565 14.8113 12.8703 14.75L20.3125 10.7438V17.1875C20.3125 17.6019 20.1479 17.9993 19.8549 18.2924C19.5618 18.5854 19.1644 18.75 18.75 18.75H6.25C5.8356 18.75 5.43817 18.5854 5.14515 18.2924C4.85212 17.9993 4.6875 17.6019 4.6875 17.1875V10.7438Z" fill="#34495E"/>
</svg>
