<svg width="35" height="35" viewBox="0 0 35 35" fill="none" xmlns="http://www.w3.org/2000/svg">
<path d="M26.25 14.2188H24.0625C24.0616 13.3488 23.7157 12.5147 23.1005 11.8995C22.4853 11.2843 21.6512 10.9384 20.7812 10.9375V8.75C22.2311 8.75174 23.6211 9.32846 24.6463 10.3537C25.6715 11.3789 26.2483 12.7689 26.25 14.2188V14.2188Z" fill="#34495E"/>
<path d="M30.625 14.2188H28.4375C28.4352 12.1889 27.6278 10.2428 26.1925 8.80752C24.7572 7.3722 22.8111 6.56482 20.7812 6.5625V4.375C23.3911 4.37789 25.8932 5.41593 27.7386 7.26136C29.5841 9.1068 30.6221 11.6089 30.625 14.2188V14.2188Z" fill="#34495E"/>
<path d="M22.2391 23.4959L24.6891 21.0459C25.0171 20.7179 25.4341 20.4933 25.8884 20.4C26.3428 20.3067 26.8146 20.3487 27.2452 20.5209L30.229 21.7153C30.6688 21.8913 31.0457 22.195 31.3113 22.5872C31.5768 22.9795 31.7187 23.4423 31.7187 23.9159V29.342C31.7194 29.6645 31.6544 29.9838 31.5275 30.2803C31.4006 30.5768 31.2145 30.8443 30.9807 31.0663C30.7468 31.2884 30.4701 31.4604 30.1674 31.5719C29.8648 31.6833 29.5426 31.7318 29.2206 31.7144C8.30587 30.4128 4.0818 12.6984 3.29759 5.915C3.2596 5.58337 3.29226 5.24746 3.39341 4.92936C3.49456 4.61125 3.66192 4.31817 3.88446 4.06938C4.107 3.8206 4.3797 3.62174 4.68461 3.4859C4.98951 3.35007 5.31973 3.28032 5.65352 3.28125H10.9834C11.457 3.28124 11.9198 3.42315 12.3121 3.68867C12.7043 3.9542 13.008 4.33117 13.184 4.77094L14.3773 7.75469C14.5495 8.18538 14.5915 8.65713 14.4982 9.11149C14.4049 9.56585 14.1803 9.98284 13.8523 10.3108L11.4023 12.7608C11.4023 12.7608 12.7607 22.3114 22.2391 23.4959Z" fill="#34495E"/>
</svg>
