<svg width="26" height="26" viewBox="0 0 26 26" fill="none" xmlns="http://www.w3.org/2000/svg">
<g clip-path="url(#clip0_892_60419)">
<path d="M13 0C7.5872 0 3.19922 4.38795 3.19922 9.80079C3.19922 11.611 3.55353 13.4806 4.57031 14.8281L13 26L21.4297 14.8281C22.3532 13.6042 22.8008 11.4404 22.8008 9.80079C22.8008 4.38795 18.4128 0 13 0ZM13 5.67638C15.2775 5.67638 17.1244 7.52327 17.1244 9.80076C17.1244 12.0783 15.2775 13.9252 13 13.9252C10.7225 13.9252 8.87563 12.0783 8.87563 9.80079C8.87563 7.52327 10.7225 5.67638 13 5.67638Z" fill="#34495E"/>
</g>
<defs>
<clipPath id="clip0_892_60419">
<rect width="26" height="26" fill="white"/>
</clipPath>
</defs>
</svg>
