<svg width="35" height="35" viewBox="0 0 35 35" fill="none" xmlns="http://www.w3.org/2000/svg">
<path d="M17.5002 5.83325C15.1927 5.83325 12.9371 6.51749 11.0185 7.79944C9.09994 9.08139 7.6046 10.9035 6.72157 13.0353C5.83855 15.1671 5.60751 17.5129 6.05767 19.776C6.50783 22.0391 7.61898 24.1179 9.25059 25.7495C10.8822 27.3811 12.961 28.4923 15.2241 28.9424C17.4872 29.3926 19.833 29.1615 21.9648 28.2785C24.0966 27.3955 25.9187 25.9001 27.2006 23.9816C28.4826 22.063 29.1668 19.8074 29.1668 17.4999C29.1668 14.4057 27.9377 11.4383 25.7497 9.25034C23.5618 7.06242 20.5944 5.83325 17.5002 5.83325V5.83325ZM16.0516 11.6666C16.0516 11.2798 16.2052 10.9089 16.4787 10.6354C16.7522 10.3619 17.1231 10.2083 17.5099 10.2083C17.8967 10.2083 18.2676 10.3619 18.5411 10.6354C18.8146 10.9089 18.9682 11.2798 18.9682 11.6666V18.3652C18.9682 18.5567 18.9305 18.7463 18.8572 18.9233C18.7839 19.1002 18.6765 19.261 18.5411 19.3964C18.4057 19.5318 18.2449 19.6392 18.068 19.7125C17.891 19.7858 17.7014 19.8235 17.5099 19.8235C17.3184 19.8235 17.1287 19.7858 16.9518 19.7125C16.7749 19.6392 16.6141 19.5318 16.4787 19.3964C16.3433 19.261 16.2359 19.1002 16.1626 18.9233C16.0893 18.7463 16.0516 18.5567 16.0516 18.3652V11.6666ZM17.5002 24.7916C17.1694 24.7916 16.8461 24.6935 16.5711 24.5098C16.2961 24.326 16.0818 24.0649 15.9552 23.7593C15.8287 23.4537 15.7956 23.1175 15.8601 22.7931C15.9246 22.4687 16.0839 22.1708 16.3177 21.9369C16.5516 21.7031 16.8496 21.5438 17.1739 21.4793C17.4983 21.4147 17.8345 21.4479 18.1401 21.5744C18.4457 21.701 18.7068 21.9153 18.8906 22.1903C19.0743 22.4653 19.1724 22.7886 19.1724 23.1194C19.1724 23.5629 18.9962 23.9882 18.6826 24.3018C18.369 24.6154 17.9437 24.7916 17.5002 24.7916Z" fill="#CC3333"/>
</svg>
