<svg width="25" height="25" viewBox="0 0 25 25" fill="none" xmlns="http://www.w3.org/2000/svg">
<g clip-path="url(#clip0_435_15830)">
<path d="M17.2948 12.3438L14.7104 5.82292L12.5313 9.63542L10.3521 5.82292L7.76774 12.3458H7.02086V13.326H10.9125V12.3458H10.3365L10.8969 10.726L12.5313 13.4031L14.1657 10.726L14.7261 12.3458H14.15V13.326H18.0573V12.3458L17.2948 12.3438ZM22.8521 10.3521C22.8528 8.99244 22.5855 7.64599 22.0655 6.3897C21.5455 5.13342 20.783 3.99195 19.8216 3.03053C18.8602 2.06911 17.7187 1.30661 16.4624 0.786613C15.2061 0.266614 13.8597 -0.00068327 12.5 1.31165e-06C6.78753 1.31165e-06 2.14795 4.63854 2.14795 10.3521C2.14795 13.2167 3.31566 15.8 5.18337 17.6677C5.30032 17.7857 5.44973 17.8662 5.61258 17.8991C5.77543 17.9319 5.94437 17.9156 6.09792 17.8522C6.25146 17.7887 6.38267 17.6811 6.47487 17.5429C6.56706 17.4047 6.61607 17.2422 6.61566 17.076C6.61601 16.849 6.52651 16.6311 6.3667 16.4698C4.74876 14.8453 3.84206 12.6448 3.84587 10.3521C3.84587 5.57292 7.72087 1.68125 12.5 1.68125C17.2792 1.68125 21.1709 5.57292 21.1709 10.3521C21.1734 11.4913 20.9505 12.6197 20.515 13.6723C20.0795 14.725 19.44 15.681 18.6334 16.4854L11.3167 23.801L12.5 25L19.8323 17.6677C20.793 16.7076 21.5544 15.5669 22.0727 14.3114C22.5909 13.0559 22.8558 11.7103 22.8521 10.3521Z" fill="#FFA500"/>
</g>
<defs>
<clipPath id="clip0_435_15830">
<rect width="25" height="25" fill="white"/>
</clipPath>
</defs>
</svg>
