<svg width="35" height="35" viewBox="0 0 35 35" fill="none" xmlns="http://www.w3.org/2000/svg">
<path d="M24.0625 8.75004V25.5209C24.0625 28.7438 21.4521 31.3542 18.2292 31.3542C15.0062 31.3542 12.3958 28.7438 12.3958 25.5209V7.29171C12.3958 6.32477 12.7799 5.39744 13.4637 4.71371C14.1474 4.02999 15.0747 3.64587 16.0417 3.64587C17.0086 3.64587 17.9359 4.02999 18.6197 4.71371C19.3034 5.39744 19.6875 6.32477 19.6875 7.29171V22.6042C19.6875 23.4063 19.0312 24.0625 18.2292 24.0625C17.4271 24.0625 16.7708 23.4063 16.7708 22.6042V8.75004H14.5833V22.6042C14.5833 23.5711 14.9674 24.4985 15.6512 25.1822C16.3349 25.8659 17.2622 26.25 18.2292 26.25C19.1961 26.25 20.1234 25.8659 20.8072 25.1822C21.4909 24.4985 21.875 23.5711 21.875 22.6042V7.29171C21.875 4.06879 19.2646 1.45837 16.0417 1.45837C12.8187 1.45837 10.2083 4.06879 10.2083 7.29171V25.5209C10.2083 29.9542 13.7958 33.5417 18.2292 33.5417C22.6625 33.5417 26.25 29.9542 26.25 25.5209V8.75004H24.0625Z" fill="#6C757D"/>
</svg>
