<svg width="22" height="17" viewBox="0 0 22 17" fill="none" xmlns="http://www.w3.org/2000/svg">
<path d="M20.8424 12.7821V5.07239L11.0784 9.5495C10.9672 9.60637 10.8405 9.63635 10.7115 9.63635C10.5825 9.63635 10.4558 9.60637 10.3446 9.5495L0.579224 5.07239V12.7821C0.579224 13.6164 0.960449 14.4166 1.63903 15.0065C2.31762 15.5965 3.23798 15.9279 4.19764 15.9279H17.224C18.1836 15.9279 19.104 15.5965 19.7826 15.0065C20.4612 14.4166 20.8424 13.6164 20.8424 12.7821Z" fill="#34495E"/>
<path d="M20.8208 3.62537C20.7221 2.85609 20.3007 2.14543 19.6371 1.62935C18.9736 1.11327 18.1144 0.828003 17.2241 0.828125H4.19775C3.30741 0.828003 2.44827 1.11327 1.78469 1.62935C1.12112 2.14543 0.699694 2.85609 0.601044 3.62537L10.7109 8.27739L20.8208 3.62537Z" fill="#34495E"/>
</svg>
