<svg width="392" height="57" viewBox="0 0 392 57" fill="none" xmlns="http://www.w3.org/2000/svg">
<path fill-rule="evenodd" clip-rule="evenodd" d="M73.7 28.52L43.76 0L13.82 28.52L43.76 57L73.7 28.52ZM71.85 28.85H44.14V55.25L71.86 28.85H71.85ZM43.57 28.17V1.42L15.66 28.19H43.57V28.17Z" fill="#009D49"/>
<path fill-rule="evenodd" clip-rule="evenodd" d="M44.13 55.25L71.86 28.85L44.13 28.87V55.25Z" fill="white"/>
<path fill-rule="evenodd" clip-rule="evenodd" d="M43.57 1.42001V28.17L15.66 28.19L43.57 1.42001Z" fill="white"/>
<path fill-rule="evenodd" clip-rule="evenodd" d="M41.45 19.33C41.4619 20.2816 41.2746 21.2252 40.9 22.1L40.71 22.51C40.3333 23.2146 39.8358 23.8476 39.24 24.38C38.5308 25.0299 37.7021 25.536 36.8 25.87C35.8652 26.213 34.8756 26.3824 33.88 26.37H3.51999C1.47332 26.37 0.446658 25.37 0.439991 23.37C0.413765 22.9561 0.476006 22.5414 0.622568 22.1534C0.769131 21.7655 0.996654 21.4132 1.28999 21.12C1.49594 20.9135 1.73617 20.7443 1.99999 20.62C2.52516 20.3871 3.0957 20.2743 3.66999 20.29H33.21C33.672 20.3237 34.1339 20.223 34.54 20C34.6294 19.9251 34.6989 19.8294 34.7425 19.7213C34.7861 19.6131 34.8024 19.4959 34.79 19.38V19.38C34.8027 19.2542 34.7858 19.1272 34.7407 19.0091C34.6955 18.8911 34.6234 18.7852 34.53 18.7C34.1285 18.475 33.6682 18.3774 33.21 18.42H7.64999C5.669 18.4534 3.74812 17.7393 2.26999 16.42V16.42C2.04999 16.22 1.85999 16.03 1.68999 15.85C1.51313 15.6518 1.34626 15.4448 1.18999 15.23C0.41109 14.1313 -0.00497122 12.8167 -8.74407e-06 11.47V11.47C-0.0180038 10.5138 0.175215 9.56546 0.565868 8.69254C0.95652 7.81962 1.53498 7.04366 2.25999 6.42V6.42C2.46212 6.23331 2.67588 6.05963 2.89999 5.9C3.11649 5.73818 3.34367 5.59118 3.57999 5.46C4.82369 4.77091 6.22857 4.42573 7.64999 4.46H38C38.3369 4.46012 38.6726 4.50041 39 4.58L32.74 10.58H8.30999C7.86218 10.5198 7.40655 10.5928 6.99999 10.79C6.90676 10.8732 6.83459 10.9773 6.78939 11.0937C6.7442 11.2102 6.72726 11.3357 6.73999 11.46V11.46C6.72652 11.5745 6.74239 11.6906 6.78613 11.7973C6.82986 11.904 6.90001 11.9979 6.98999 12.07C7.39565 12.2934 7.85868 12.3909 8.31999 12.35H33.87C34.8604 12.3416 35.8448 12.504 36.78 12.83C37.6824 13.1605 38.5137 13.6593 39.23 14.3C39.9393 14.9253 40.5055 15.6961 40.89 16.56C41.2681 17.4306 41.4589 18.3709 41.45 19.32V19.33Z" fill="#0054A1"/>
<path d="M72.8 49.74C72.8292 50.1515 72.7732 50.5645 72.6355 50.9534C72.4979 51.3422 72.2815 51.6985 72 52C71.8023 52.1931 71.5764 52.355 71.33 52.48C70.8133 52.7184 70.2488 52.8347 69.68 52.82H53.81C52.7947 52.8447 51.7847 52.6653 50.84 52.2926C49.8952 51.9198 49.0349 51.3613 48.31 50.65V50.65C48.1 50.44 47.91 50.24 47.73 50.03C47.5524 49.821 47.3887 49.6005 47.24 49.37C46.4569 48.1845 46.0492 46.7906 46.07 45.37V30.71H52.88V36.65C52.8622 36.8305 52.8823 37.0127 52.9392 37.1849C52.996 37.3571 53.0883 37.5155 53.21 37.65C53.5854 37.8962 54.0327 38.0089 54.48 37.97H61.9C62.7608 37.9191 63.6076 38.2061 64.26 38.77C64.5431 39.0654 64.7628 39.4157 64.9055 39.7992C65.0482 40.1827 65.111 40.5913 65.09 41V41C65.09 43 64.09 44.06 61.95 44.06H54.64C54.1434 44.0138 53.6453 44.1296 53.22 44.39C53.0902 44.5196 52.9913 44.6769 52.9308 44.85C52.8702 45.0232 52.8494 45.2077 52.87 45.39V45.39C52.8472 45.6836 52.9247 45.9762 53.09 46.22C53.1519 46.3019 53.2303 46.37 53.32 46.42C53.6873 46.5842 54.0881 46.6596 54.49 46.64H69.49C71.6766 46.64 72.7733 47.66 72.78 49.7L72.8 49.74Z" fill="#0054A1"/>
<path d="M386.29 18.83C386.29 15.29 384.78 13.19 381.74 12.53C380.951 12.365 380.146 12.2845 379.34 12.29H357.53C356.72 12.2851 355.913 12.3655 355.12 12.53C352.087 13.1967 350.57 15.2967 350.57 18.83C350.57 22.3633 352.087 24.5167 355.12 25.29C355.912 25.4629 356.72 25.5467 357.53 25.54H379.34C380.147 25.5472 380.952 25.4634 381.74 25.29C384.74 24.58 386.29 22.43 386.29 18.83V18.83ZM146.29 23.41C146.308 24.356 146.117 25.2942 145.732 26.1583C145.346 27.0224 144.776 27.7911 144.06 28.41C142.553 29.7547 140.589 30.4705 138.57 30.41H103.29C102.958 30.46 102.62 30.4328 102.301 30.3306C101.981 30.2284 101.69 30.0539 101.449 29.8208C101.208 29.5876 101.024 29.302 100.912 28.9862C100.799 28.6705 100.761 28.333 100.8 28C100.8 26.37 101.68 25.55 103.46 25.55H137.81C139.75 25.55 140.73 24.87 140.73 23.5C140.73 22.13 139.73 21.38 137.81 21.38H108.1C106.069 21.4253 104.094 20.7123 102.56 19.38C101.827 18.7729 101.241 18.0077 100.846 17.1417C100.451 16.2757 100.258 15.3315 100.28 14.38C100.267 13.4299 100.465 12.4887 100.859 11.6241C101.253 10.7596 101.834 9.99317 102.56 9.37999C104.09 8.04089 106.068 7.32685 108.1 7.37999H143.39C144.99 7.37999 145.79 8.22999 145.79 9.91999C145.79 11.61 144.93 12.29 143.21 12.29H108.87C106.87 12.29 105.95 13 105.95 14.41C105.95 15.82 106.95 16.46 108.87 16.46H138.58C140.597 16.4106 142.558 17.125 144.07 18.46C144.792 19.0738 145.367 19.8416 145.753 20.7069C146.138 21.5721 146.326 22.5129 146.3 23.46L146.29 23.41ZM189.76 17.28C189.707 16.006 189.187 14.796 188.3 13.88C187.3 12.77 185.49 12.21 182.8 12.21H158.69C156.57 12.21 155.31 12.91 154.91 14.33C154.766 15.0843 154.709 15.8527 154.74 16.62V22.1H182.81C183.633 22.1099 184.455 22.0294 185.26 21.86C186.02 21.6698 186.734 21.3298 187.36 20.86C188.97 19.76 189.77 18.57 189.77 17.26L189.76 17.28ZM195.34 17.11C195.4 19.29 194.4 21.4867 192.34 23.7C190.28 25.9133 187.363 27.0133 183.59 27H154.74V30.43H149.33V15.64C149.33 11.28 151.017 8.66332 154.39 7.78999L159.46 7.29999H182.73C186.85 7.29999 189.827 8.06332 191.66 9.58999C192.76 10.3811 193.694 11.3799 194.41 12.53C195.098 13.9552 195.421 15.529 195.35 17.11H195.34ZM239 14C238.66 12.85 237.69 12.28 236.13 12.28H206.73C204.73 12.28 203.78 13.1 203.78 14.73C203.78 16.36 204.83 17.27 206.9 17.27H235.9C237.97 17.27 239.02 16.42 239.02 14.73V14H239ZM244.41 14.73V30.43H239V24.63C239 22.99 238 22.17 236.08 22.17H206.7C204.76 22.17 203.78 22.99 203.78 24.63V30.43H198.37V13.93C198.585 12.1047 199.495 10.4324 200.91 9.25999C202.35 8.01593 204.198 7.34655 206.1 7.37999H236.76C238.577 7.34603 240.348 7.95521 241.76 9.09999C243.141 10.1739 244.086 11.7123 244.42 13.43V14.74L244.41 14.73ZM287.87 14.81C287.87 13.12 286.87 12.28 284.87 12.28H252.87V14.73C252.84 15.3578 252.867 15.987 252.95 16.61C253.07 17.05 253.47 17.27 254.16 17.27H285.31C287.04 17.1 287.9 16.27 287.9 14.81H287.87ZM293.45 30.43H287.87V24.63C287.87 22.99 286.99 22.17 285.22 22.17H254.22C253.553 22.17 253.123 22.39 252.93 22.83C252.852 23.4266 252.825 24.0288 252.85 24.63V30.43H247.44V7.37999H285.65C286.671 7.36 287.685 7.54137 288.636 7.91371C289.587 8.28605 290.454 8.84207 291.19 9.54999C291.913 10.206 292.489 11.0076 292.88 11.9021C293.272 12.7966 293.469 13.7637 293.46 14.74C293.474 16.6042 292.756 18.3994 291.46 19.74C292.756 21.0805 293.474 22.8758 293.46 24.74V30.46L293.45 30.43ZM342 23C342.014 23.9901 341.819 24.9721 341.427 25.8818C341.036 26.7915 340.458 27.6087 339.73 28.28C338.243 29.7061 336.25 30.483 334.19 30.44H308.23C307.08 30.33 305.45 30.09 303.33 29.71C301.871 29.2525 300.566 28.4012 299.56 27.25C297.477 24.9816 296.364 21.9882 296.46 18.91C296.368 15.8323 297.48 12.8401 299.56 10.57C300.575 9.42172 301.886 8.57424 303.35 8.11999L308.26 7.37999H339.48C339.818 7.32336 340.164 7.34698 340.49 7.44894C340.817 7.5509 341.115 7.72833 341.36 7.96688C341.606 8.20543 341.791 8.4984 341.903 8.82207C342.014 9.14574 342.047 9.49103 342 9.82999C342 11.47 341.14 12.29 339.43 12.29H309C308.19 12.2846 307.383 12.365 306.59 12.53C303.53 13.19 302 15.3467 302 19C302 22.4933 303.52 24.5933 306.56 25.3C307.348 25.4734 308.153 25.5572 308.96 25.55H333.35C335.35 25.55 336.35 24.7 336.35 23.01V21.2C336.24 20.77 335.83 20.55 335.15 20.55H311.83C310.12 20.55 309.26 19.73 309.26 18.09C309.214 17.7539 309.247 17.4118 309.357 17.0908C309.466 16.7698 309.649 16.4788 309.891 16.2409C310.133 16.0031 310.427 15.8249 310.749 15.7205C311.072 15.6162 311.415 15.5886 311.75 15.64H338.45C340.28 15.64 341.4 16.35 341.8 17.77C341.98 19.5071 342.047 21.2542 342 23V23ZM391.9 18.91C391.999 21.987 390.89 24.9806 388.81 27.25C387.793 28.4074 386.474 29.2591 385 29.71L380.1 30.44H356.76C355.61 30.33 353.98 30.09 351.86 29.71C350.401 29.2525 349.096 28.4012 348.09 27.25C346.007 24.9816 344.894 21.9882 344.99 18.91C344.898 15.8323 346.01 12.8401 348.09 10.57C349.094 9.41842 350.4 8.56994 351.86 8.11999L356.76 7.37999H380.11C381.759 7.50942 383.396 7.75672 385.01 8.11999C386.47 8.56994 387.776 9.41842 388.78 10.57C390.857 12.8411 391.966 15.8335 391.87 18.91H391.9Z" fill="#0054A1"/>
<path d="M100.28 35.57H102.8V49.73H104.23V35.57H106.72V34.37H100.28V35.57Z" fill="#009D49"/>
<path d="M128.3 42.54H131.77V41.31H128.3V35.57H132.11V34.37H126.87V49.73H132.17V48.52H128.3V42.54Z" fill="#009D49"/>
<path d="M157.61 34.37H153.46C153.31 34.3631 153.161 34.3861 153.02 34.4376C152.879 34.4891 152.75 34.5681 152.64 34.67C152.533 34.7689 152.449 34.8899 152.394 35.0246C152.339 35.1594 152.313 35.3045 152.32 35.45V48.64C152.313 48.7855 152.339 48.9306 152.394 49.0654C152.449 49.2001 152.533 49.3211 152.64 49.42C152.748 49.5251 152.877 49.6069 153.018 49.6602C153.159 49.7135 153.309 49.7373 153.46 49.73H157.61C157.764 49.7366 157.917 49.7125 158.061 49.6593C158.205 49.6061 158.338 49.5247 158.45 49.42C158.559 49.322 158.645 49.2014 158.702 49.0667C158.759 48.9319 158.785 48.7862 158.78 48.64V44.74H157.34V48.52H153.75V35.52H157.34V39H158.78V35.45C158.785 35.3038 158.759 35.1581 158.702 35.0233C158.645 34.8886 158.559 34.7679 158.45 34.67C158.219 34.4658 157.918 34.3584 157.61 34.37V34.37Z" fill="#009D49"/>
<path d="M211.12 45.47L206.89 34.37H205.82V49.73H207.17V38.43L211.48 49.73H212.47V34.37H211.12V45.47Z" fill="#009D49"/>
<path d="M184.24 41.12H180.35V34.37H178.92V49.73H180.35V42.35H184.24V49.73H185.67V34.37H184.24V41.12Z" fill="#009D49"/>
<path d="M261.01 34.37H259.58V49.73H264.73V48.52H261.01V34.37Z" fill="#009D49"/>
<path d="M361.52 42.54H364.98V41.31H361.52V35.57H365.32V34.37H360.09V49.73H365.38V48.52H361.52V42.54Z" fill="#009D49"/>
<path d="M238.27 34.37H233.76C233.455 34.3589 233.157 34.4664 232.93 34.67C232.823 34.7689 232.739 34.8899 232.684 35.0246C232.628 35.1593 232.603 35.3045 232.61 35.45V48.64C232.603 48.7855 232.628 48.9306 232.684 49.0654C232.739 49.2001 232.823 49.3211 232.93 49.42C233.041 49.5244 233.171 49.6057 233.314 49.6589C233.456 49.7122 233.608 49.7363 233.76 49.73H238.27C238.422 49.7375 238.574 49.7139 238.717 49.6606C238.86 49.6073 238.99 49.5254 239.1 49.42C239.209 49.322 239.295 49.2014 239.352 49.0667C239.409 48.9319 239.435 48.7862 239.43 48.64V35.45C239.435 35.3038 239.409 35.1581 239.352 35.0233C239.295 34.8886 239.209 34.7679 239.1 34.67C238.874 34.4645 238.575 34.3567 238.27 34.37ZM238 48.52H234V35.52H238V48.52Z" fill="#009D49"/>
<path d="M339.94 34.37H338.51V49.73H339.94V34.37Z" fill="#009D49"/>
<path d="M391.87 39V35.45C391.878 35.3053 391.854 35.1606 391.801 35.0259C391.747 34.8912 391.665 34.7698 391.56 34.67C391.45 34.5681 391.321 34.4891 391.18 34.4376C391.039 34.3861 390.89 34.3631 390.74 34.37H386.68C386.375 34.3599 386.078 34.4673 385.85 34.67C385.743 34.7689 385.659 34.8899 385.604 35.0246C385.548 35.1594 385.523 35.3045 385.53 35.45V38.57C385.533 39.0035 385.697 39.4204 385.99 39.74L390.44 44.86V48.52H387V44.74H385.57V48.64C385.563 48.7855 385.588 48.9306 385.644 49.0654C385.699 49.2001 385.783 49.3211 385.89 49.42C386.115 49.6291 386.413 49.7406 386.72 49.73H390.78C390.931 49.7373 391.081 49.7135 391.222 49.6602C391.363 49.6069 391.492 49.5251 391.6 49.42C391.705 49.3202 391.787 49.1988 391.841 49.0641C391.894 48.9294 391.918 48.7847 391.91 48.64V45.08C391.913 44.6581 391.755 44.2508 391.47 43.94L387 38.81V35.57H390.48V39H391.87Z" fill="#009D49"/>
<path d="M317.22 34.37H313C312.85 34.3631 312.701 34.3861 312.56 34.4376C312.419 34.4891 312.29 34.5681 312.18 34.67C312.073 34.7689 311.989 34.8899 311.934 35.0246C311.878 35.1594 311.853 35.3045 311.86 35.45V48.64C311.853 48.7855 311.878 48.9307 311.934 49.0654C311.989 49.2001 312.073 49.3211 312.18 49.42C312.288 49.5251 312.417 49.6069 312.558 49.6602C312.699 49.7136 312.849 49.7373 313 49.73H317.24C317.39 49.7361 317.541 49.7118 317.682 49.6586C317.822 49.6053 317.951 49.5242 318.06 49.42C318.167 49.3211 318.251 49.2001 318.306 49.0654C318.361 48.9307 318.387 48.7855 318.38 48.64V42H315.21V43.18H316.94V48.49H313.29V35.49H316.94V39H318.38V35.45C318.387 35.3045 318.361 35.1594 318.306 35.0246C318.251 34.8899 318.167 34.7689 318.06 34.67C317.947 34.5666 317.814 34.4868 317.67 34.4353C317.526 34.3837 317.373 34.3616 317.22 34.37V34.37Z" fill="#009D49"/>
<path d="M291.36 34.67C291.137 34.4661 290.842 34.3583 290.54 34.37H286C285.695 34.3589 285.398 34.4664 285.17 34.67C285.063 34.7689 284.979 34.8899 284.924 35.0246C284.869 35.1594 284.843 35.3045 284.85 35.45V48.64C284.843 48.7855 284.869 48.9306 284.924 49.0654C284.979 49.2001 285.063 49.3211 285.17 49.42C285.281 49.5245 285.411 49.6057 285.554 49.6589C285.696 49.7122 285.848 49.7363 286 49.73H290.52C290.671 49.7361 290.821 49.7118 290.962 49.6586C291.103 49.6053 291.231 49.5242 291.34 49.42C291.449 49.3221 291.535 49.2014 291.592 49.0667C291.649 48.9319 291.675 48.7862 291.67 48.64V35.45C291.678 35.3053 291.654 35.1606 291.601 35.0259C291.547 34.8912 291.465 34.7698 291.36 34.67ZM290.26 48.52H286.31V35.52H290.26V48.52Z" fill="#009D49"/>
</svg>
