<svg width="35" height="36" viewBox="0 0 35 36" xmlns="http://www.w3.org/2000/svg">
<path d="M16.0766 7.5C11.616 7.5 8 11.1161 8 15.5769C8 20.0376 11.616 23.6537 16.0766 23.6537C17.9611 23.6537 19.6941 23.0084 21.0679 21.9276L26.3584 27.2183C26.4477 27.3076 26.5537 27.3785 26.6704 27.4268C26.7871 27.4751 26.9121 27.5 27.0384 27.5C27.1647 27.5 27.2897 27.4751 27.4064 27.4268C27.523 27.3785 27.6291 27.3076 27.7183 27.2183C27.8076 27.129 27.8785 27.023 27.9268 26.9064C27.9751 26.7897 28 26.6646 28 26.5383C28 26.4121 27.9751 26.287 27.9268 26.1703C27.8785 26.0537 27.8076 25.9476 27.7183 25.8583L22.427 20.5676C23.5477 19.1457 24.1559 17.3873 24.1531 15.5769C24.1531 11.1161 20.5371 7.5 16.0766 7.5ZM9.92299 15.5769C9.92299 13.9448 10.5713 12.3795 11.7253 11.2255C12.8793 10.0714 14.4445 9.42306 16.0766 9.42306C17.7086 9.42306 19.2738 10.0714 20.4278 11.2255C21.5818 12.3795 22.2301 13.9448 22.2301 15.5769C22.2301 17.209 21.5818 18.7742 20.4278 19.9283C19.2738 21.0823 17.7086 21.7307 16.0766 21.7307C14.4445 21.7307 12.8793 21.0823 11.7253 19.9283C10.5713 18.7742 9.92299 17.209 9.92299 15.5769Z" />
</svg>
