<?xml version="1.0" encoding="utf-8"?><svg viewBox="0 0 688 512" xmlns="http://www.w3.org/2000/svg" xmlns:xlink="http://www.w3.org/1999/xlink"><style>:root>svg{display:none}:root>svg:target{display:block}</style><svg viewBox="-40 0 511 512" id="about_all_1" xmlns="http://www.w3.org/2000/svg"><path d="M112.21 119.21h96.192a7.5 7.5 0 007.5-7.5c0-4.144-3.355-7.5-7.5-7.5h-96.191a7.497 7.497 0 00-7.5 7.5 7.5 7.5 0 007.5 7.5zm0 0M64.113 167.309H256.5a7.5 7.5 0 100-15H64.113a7.497 7.497 0 00-7.5 7.5 7.5 7.5 0 007.5 7.5zm0 0M64.113 231.438H256.5a7.5 7.5 0 100-15H64.113a7.497 7.497 0 00-7.5 7.5 7.5 7.5 0 007.5 7.5zm0 0M64.113 199.371H256.5a7.5 7.5 0 100-15H64.113a7.497 7.497 0 00-7.5 7.5 7.5 7.5 0 007.5 7.5zm0 0M152.29 272.547H64.112a7.5 7.5 0 00-7.5 7.5c0 4.144 3.356 7.5 7.5 7.5h88.176c4.145 0 7.5-3.356 7.5-7.5a7.5 7.5 0 00-7.5-7.5zm0 0M152.29 304.613H64.112a7.5 7.5 0 100 15h88.176a7.5 7.5 0 100-15zm0 0"/><path d="M352.176 307.309V7.5a7.5 7.5 0 00-7.5-7.5H40.063c-4.141 0-7.5 3.36-7.5 7.5v24.563H8c-4.14 0-7.5 3.359-7.5 7.5V440.37c0 4.14 3.36 7.5 7.5 7.5h224.8C248.384 485.477 285.474 512 328.646 512c57.175 0 103.695-46.516 103.695-103.691 0-49.086-34.285-90.317-80.164-101zM15.5 432.87V47.063h217.469v64.648a7.5 7.5 0 007.5 7.5h64.644V264.02c0 4.14 3.36 7.5 7.5 7.5s7.5-3.36 7.5-7.5V111.71c0-1.991-.789-3.897-2.199-5.304L245.77 34.262a7.499 7.499 0 00-5.301-2.2H47.563V15h289.613v289.965c-2.813-.23-5.656-.352-8.531-.352s-5.72.121-8.532.352v-8.883a7.5 7.5 0 00-7.5-7.5 7.497 7.497 0 00-7.5 7.5v11.227c-45.879 10.687-80.164 51.914-80.164 101 0 8.46 1.028 16.683 2.95 24.562zm232.469-375.2l46.535 46.54h-46.535zM328.645 497c-48.907 0-88.692-39.79-88.692-88.691 0-48.907 39.785-88.696 88.692-88.696s88.695 39.79 88.695 88.696c0 48.902-39.79 88.691-88.695 88.691zm0 0"/><path d="M328.645 367.71c11.472 0 22.476 4.935 30.195 13.54a7.5 7.5 0 0010.59.574 7.497 7.497 0 00.578-10.59c-10.559-11.77-25.637-18.523-41.363-18.523-30.657 0-55.598 24.941-55.598 55.598s24.941 55.597 55.598 55.597c15.726 0 30.804-6.754 41.363-18.527a7.497 7.497 0 00-.578-10.59 7.5 7.5 0 00-10.59.574c-7.719 8.606-18.723 13.543-30.195 13.543-22.383 0-40.598-18.215-40.598-40.597 0-22.387 18.21-40.598 40.598-40.598zm0 0"/></svg><svg viewBox="0 0 1540 1540" id="about_all_2" xmlns="http://www.w3.org/2000/svg"><path d="M1216 1531H26c-11.6 0-21-9.4-21-21V30C5 18.4 14.4 9 26 9h1190c11.6 0 21 9.4 21 21v813.3c0 11.6-9.4 21-21 21s-21-9.4-21-21V51H47v1438h1148v-193.5c0-11.6 9.4-21 21-21s21 9.4 21 21V1510c0 11.6-9.4 21-21 21z"/><path d="M621 753.2c-74.1 0-143.9-28.9-196.3-81.3s-81.3-122.1-81.3-196.3 28.9-143.9 81.3-196.3C477.2 226.9 546.9 198 621 198s143.9 28.9 196.3 81.3 81.3 122.1 81.3 196.3c0 74.1-28.9 143.9-81.3 196.3S695.2 753.2 621 753.2zm0-513.2c-129.9 0-235.6 105.7-235.6 235.6S491.1 711.2 621 711.2s235.6-105.7 235.6-235.6S750.9 240 621 240z"/><path d="M621 547c-64.4 0-116.8-52.4-116.8-116.8S556.6 313.4 621 313.4s116.8 52.4 116.8 116.8S685.4 547 621 547zm0-191.6c-41.2 0-74.8 33.5-74.8 74.8S579.8 505 621 505s74.8-33.6 74.8-74.8-33.5-74.8-74.8-74.8z"/><path d="M776.8 700.5c-11.6 0-21-9.4-21-21v-21.7c0-60.8-49.5-110.3-110.3-110.3h-49c-60.8 0-110.3 49.5-110.3 110.3v21.7c0 11.6-9.4 21-21 21s-21-9.4-21-21v-21.7c0-84 68.3-152.3 152.3-152.3h49c84 0 152.3 68.3 152.3 152.3v21.7c0 11.6-9.4 21-21 21z"/><g><path d="M833.7 972H364.1c-11.6 0-21-9.4-21-21s9.4-21 21-21h469.6c11.6 0 21 9.4 21 21s-9.4 21-21 21zM810.6 1139.1H364.1c-11.6 0-21-9.4-21-21s9.4-21 21-21h446.5c11.6 0 21 9.4 21 21s-9.4 21-21 21zM915.7 1306.2H364.1c-11.6 0-21-9.4-21-21s9.4-21 21-21h551.6c11.6 0 21 9.4 21 21s-9.4 21-21 21z"/><circle cx="252.7" cy="951" r="35.8"/><circle cx="252.7" cy="1118.1" r="35.8"/><circle cx="252.7" cy="1285.2" r="35.8"/></g><g><path d="M1073.4 1357.7c-77 0-149.4-30-203.8-84.4s-84.4-126.8-84.4-203.8 30-149.4 84.4-203.8 126.8-84.4 203.8-84.4 149.4 30 203.8 84.4c54.4 54.4 84.4 126.8 84.4 203.8s-30 149.4-84.4 203.8-126.8 84.4-203.8 84.4zm0-534.6c-65.8 0-127.6 25.6-174.1 72.1-96 96-96 252.2 0 348.3 46.5 46.5 108.4 72.1 174.1 72.1 65.8 0 127.6-25.6 174.1-72.1s72.1-108.4 72.1-174.1c0-65.8-25.6-127.6-72.1-174.1-46.5-46.5-108.3-72.2-174.1-72.2z"/><path d="M1073.4 1282.3c-54.5 0-109.1-20.8-150.6-62.3-83-83-83-218.2 0-301.2s218.2-83 301.2 0 83 218.2 0 301.2c-41.5 41.5-96 62.3-150.6 62.3zm0-383.8c-43.8 0-87.6 16.7-120.9 50-66.7 66.7-66.7 175.1 0 241.8s175.1 66.7 241.8 0 66.7-175.1 0-241.8c-33.3-33.3-77.1-50-120.9-50zM1467.6 1530.9c-17.3 0-34.5-6.6-47.7-19.7l-208-208c-8.2-8.2-8.2-21.5 0-29.7s21.5-8.2 29.7 0l208 208c9.9 9.9 26 9.9 35.9 0 4.8-4.8 7.4-11.2 7.4-18s-2.6-13.2-7.4-18l-208-208c-8.2-8.2-8.2-21.5 0-29.7s21.5-8.2 29.7 0l208 208c26.3 26.3 26.3 69 0 95.3-13.1 13.3-30.3 19.8-47.6 19.8z"/></g></svg><svg viewBox="0 0 512 512" id="about_all_3" xmlns="http://www.w3.org/2000/svg"><path d="M233.166 135.667h-120c-4.143 0-7.5 3.358-7.5 7.5s3.357 7.5 7.5 7.5h120c4.143 0 7.5-3.358 7.5-7.5s-3.357-7.5-7.5-7.5z"/><path d="M144.549 328.727a156.754 156.754 0 01-49.009-17.731 7.497 7.497 0 00-8.784 1.03c-13.438 12.451-30.931 19.308-49.256 19.308a73.23 73.23 0 01-10.014-.684c14.516-10.125 25.801-24.531 32.053-41.363a7.5 7.5 0 00-1.569-7.751C30.26 252.09 15 213.605 15 173.167 15 85.953 85.953 15 173.167 15c76.434 0 141.863 54.483 155.578 129.549a7.5 7.5 0 0014.756-2.696C328.483 59.658 256.848 0 173.167 0 77.683 0 0 77.682 0 173.167c0 42.655 15.51 83.329 43.774 115.074-7.604 17.112-21.642 30.756-39.089 37.819a7.502 7.502 0 00.001 13.904c10.439 4.226 21.479 6.369 32.814 6.369 20.295 0 39.745-6.969 55.345-19.729a171.618 171.618 0 0049.011 16.878 7.5 7.5 0 102.693-14.755z"/><path d="M113.166 195.667c-4.143 0-7.5 3.358-7.5 7.5s3.357 7.5 7.5 7.5h84.812c4.143 0 7.5-3.358 7.5-7.5s-3.357-7.5-7.5-7.5zM240.666 173.167a7.5 7.5 0 00-7.5-7.5h-120c-4.143 0-7.5 3.358-7.5 7.5s3.357 7.5 7.5 7.5h120a7.5 7.5 0 007.5-7.5zM376.333 264.482c-13.82 0-26.895 4.629-37.5 13.163-10.604-8.533-23.679-13.163-37.5-13.163-33.084 0-60 26.916-60 60 0 31.114 16.466 61.686 47.616 88.41 23.019 19.747 45.761 30.443 46.717 30.889a7.51 7.51 0 006.334 0c.956-.446 23.698-11.142 46.717-30.889 31.15-26.724 47.616-57.296 47.616-88.41 0-33.084-26.916-60-60-60zm-37.5 164.106c-15.509-8.095-82.5-46.417-82.5-104.106 0-24.813 20.187-45 45-45 12.187 0 23.602 4.802 32.143 13.521a7.498 7.498 0 0010.714.001c8.542-8.719 19.957-13.521 32.143-13.521 24.813 0 45 20.187 45 45 0 57.692-67 96.016-82.5 104.105z"/><path d="M507.314 491.727c-17.446-7.063-31.485-20.707-39.09-37.819C496.49 422.162 512 381.489 512 338.833c0-95.484-77.683-173.167-173.167-173.167s-173.166 77.683-173.166 173.167S243.349 512 338.833 512c28.006 0 55.66-6.808 80.321-19.73C434.755 505.031 454.205 512 474.5 512c11.335 0 22.376-2.143 32.814-6.37a7.5 7.5 0 000-13.903zM474.5 497c-18.324 0-35.817-6.857-49.257-19.308a7.493 7.493 0 00-8.784-1.03C392.889 489.967 366.046 497 338.833 497c-87.213 0-158.166-70.953-158.166-158.167s70.953-158.167 158.166-158.167C426.047 180.667 497 251.62 497 338.833c0 40.438-15.261 78.924-42.971 108.368a7.497 7.497 0 00-1.568 7.751c6.252 16.833 17.537 31.239 32.053 41.363-3.298.456-6.64.685-10.014.685z"/></svg><svg viewBox="1 -23 511.999 511" id="about_all_4" xmlns="http://www.w3.org/2000/svg"><path d="M483.168 204.715l-30.742-2.348c-1-.074-1.856-.754-2.121-1.691a201.333 201.333 0 00-15.934-39.246c-.46-.864-.32-1.95.344-2.703l20.703-23.387c10.918-12.328 10.348-31.11-1.297-42.754l-31.723-31.727c-11.468-11.46-30.085-12.172-42.39-1.613l-23.403 20.078c-.761.656-1.851.778-2.703.305a201.244 201.244 0 00-39.015-16.527c-.934-.282-1.598-1.145-1.66-2.149l-1.891-31.14C310.332 13.375 296.648.5 280.184.5H235.32c-16.21 0-29.882 12.664-31.117 28.832l-2.348 30.742c-.074 1.004-.746 1.856-1.667 2.117a201.377 201.377 0 00-42.114 17.45c-.844.468-1.922.34-2.683-.313l-23.399-20.082c-12.304-10.562-30.926-9.851-42.39 1.617L57.879 92.586c-11.645 11.648-12.215 30.426-1.3 42.758l20.702 23.383c.668.753.805 1.84.344 2.703a201.463 201.463 0 00-15.93 39.246c-.27.937-1.12 1.617-2.12 1.691l-30.747 2.352C12.664 205.949 0 219.62 0 235.836v44.863c0 16.469 12.875 30.153 29.313 31.153l31.136 1.894c1.004.063 1.867.727 2.149 1.66a201.713 201.713 0 0016.523 39.016c.477.855.356 1.941-.3 2.707L58.741 380.53c-10.558 12.305-9.847 30.926 1.613 42.39l31.723 31.727a31.11 31.11 0 009.781 6.625 7.496 7.496 0 009.844-3.945 7.43 7.43 0 00.496-4.207v-39.344c0-17.703 11.246-33.386 27.98-39.023l15.759-5.297a33.076 33.076 0 008.445-4.266 88.72 88.72 0 0017.586 3.559l-16.758 59.246a7.489 7.489 0 001.633 7.05l19.293 21.516a7.51 7.51 0 005.398 2.493h.188a7.5 7.5 0 005.324-2.22l21.34-21.515a7.5 7.5 0 001.832-7.523l-18.543-59.274a89.313 89.313 0 0018.238-4.214 33.256 33.256 0 009.637 5.144l15.75 5.297c10.703 3.605 19.543 11.578 24.258 21.879a40.787 40.787 0 013.718 16.406c0 .137.008.258.016.395.008.117.004.23.004.347v43.875c0 4.145 3.355 7.5 7.5 7.5s7.5-3.355 7.5-7.5v-43.875c0-.39-.004-.77-.024-1.152a55.69 55.69 0 00-2.921-16.82 31.859 31.859 0 018.187-4.149l12.809-4.308c2.37-.801 4.593-1.891 6.648-3.258a73.9 73.9 0 0012.227 2.57l-13.16 46.524a7.513 7.513 0 001.632 7.05l15.676 17.477a7.505 7.505 0 005.395 2.488 7.502 7.502 0 005.516-2.215l17.331-17.48a7.494 7.494 0 001.832-7.52l-14.562-46.558a73.807 73.807 0 0012.703-3.024 27.947 27.947 0 007.644 3.946l12.793 4.308c13.028 4.387 21.778 16.586 21.778 30.356v30.691c0 .027.004.055.004.082a7.437 7.437 0 00.414 4.55 7.497 7.497 0 009.832 3.974 31.094 31.094 0 009.867-6.664l31.723-31.727c11.464-11.465 12.175-30.086 1.617-42.39l-20.078-23.403c-.657-.762-.778-1.852-.305-2.707a201.369 201.369 0 0016.523-39.016c.286-.933 1.149-1.597 2.153-1.66l31.136-1.894c16.438-1 29.313-14.684 29.313-31.149v-44.867c0-16.21-12.664-29.883-28.832-31.117zm-255.73 47.312l-46.168-14.859a7.51 7.51 0 00-5.77.492l-17.45 9.11v-8.797c0-10.258 8.329-18.602 18.563-18.602h32.262c10.234 0 18.563 8.344 18.563 18.602zm-69.387 11.664l21.61-11.285 47.777 15.38v22.605c0 5.257-2.786 10.218-7.266 12.949l-19.57 11.933a15.045 15.045 0 01-15.715 0l-19.574-11.933c-4.481-2.73-7.262-7.692-7.262-12.95zm34.36 90.496c-5.802.125-11.556-.43-17.192-1.644a33.499 33.499 0 003.437-14.738v-8.832a30.036 30.036 0 0014.086 3.527c4.836 0 9.668-1.184 14.086-3.531v8.836a33.42 33.42 0 003.012 13.902 74.155 74.155 0 01-17.43 2.48zm-.415 86.442l-11.226-12.524 11.316-40.003 12.473 39.863zm170.559-151.93l-35.66-11.48a7.509 7.509 0 00-5.77.492l-12.113 6.328v-4.824c0-7.555 6.129-13.703 13.668-13.703h26.207c7.535 0 13.668 6.148 13.668 13.703zm-53.543 12.262l16.273-8.5 37.27 11.996v17.336c0 3.781-2 7.352-5.227 9.316l-15.894 9.692a10.813 10.813 0 01-11.301 0l-15.899-9.692c-3.222-1.964-5.222-5.535-5.222-9.316zm26.468 71.242c-4.02.082-8-.254-11.921-.976a28.548 28.548 0 002.187-10.918v-4.95a25.745 25.745 0 0010.035 2.047c3.41 0 6.82-.687 10.035-2.047v4.95c0 3.578.664 7.062 1.926 10.316a58.61 58.61 0 01-12.262 1.578zm-.25 69.57l-7.609-8.48 7.695-27.203 8.465 27.062zM497 280.7c0 8.555-6.687 15.66-15.223 16.18l-31.136 1.894c-7.23.438-13.496 5.372-15.594 12.27a186.362 186.362 0 01-15.29 36.11c-3.5 6.308-2.683 14.245 2.036 19.742l20.078 23.402c5.484 6.394 5.117 16.066-.84 22.02l-26.23 26.234v-16.54c0-20.214-12.856-38.128-31.988-44.57l-10.114-3.406c29.156-29.015 46.844-68.133 48.906-108.898a7.5 7.5 0 00-7.113-7.867c-4.148-.22-7.66 2.976-7.867 7.109-1.895 37.402-18.273 73.297-45.258 99.773a13.607 13.607 0 01-.55-3.843V346.55l4.324-2.637c7.656-4.668 12.414-13.144 12.414-22.121v-22.7-19.878c0-15.828-12.86-28.703-28.668-28.703H322.68c-15.809 0-28.668 12.875-28.668 28.703v42.578c0 8.977 4.758 17.453 12.414 22.125l4.324 2.633v13.758c0 3.75-1.574 7.363-4.32 9.918a13.377 13.377 0 01-4.867 2.906l-12.81 4.308a46.787 46.787 0 00-10.136 4.836c-6.847-10.093-16.875-17.816-28.531-21.742l-15.758-5.3a18 18 0 01-7.398-4.7 18.327 18.327 0 01-5.102-12.73v-17.903l6.152-3.75c8.915-5.437 14.454-15.308 14.454-25.757v-27.97-24.452c0-18.528-15.055-33.602-33.563-33.602H176.61c-18.504 0-33.562 15.074-33.562 33.602v52.422c0 10.453 5.539 20.32 14.457 25.757l6.152 3.75v17.903c0 5.101-2.14 10.015-5.879 13.492a18.107 18.107 0 01-6.617 3.941l-15.765 5.301c-22.844 7.695-38.196 29.09-38.196 53.238v24.774l-26.234-26.235c-5.953-5.957-6.32-15.625-.836-22.02l20.078-23.401c4.719-5.497 5.535-13.434 2.035-19.747a186.585 186.585 0 01-15.293-36.105c-2.094-6.898-8.36-11.832-15.59-12.27l-31.136-1.894c-8.535-.52-15.223-7.625-15.223-16.18v-44.863c0-8.422 6.578-15.523 14.973-16.164l30.746-2.348c7.219-.55 13.406-5.578 15.394-12.508A186.364 186.364 0 0190.855 168.5c3.403-6.367 2.461-14.29-2.34-19.715l-20.702-23.387c-5.672-6.402-5.375-16.156.671-22.207l31.727-31.722c5.95-5.957 15.621-6.328 22.012-.844l23.402 20.082c5.5 4.719 13.43 5.543 19.727 2.047a186.48 186.48 0 0138.972-16.145c6.918-1.98 11.938-8.168 12.489-15.394l2.347-30.742c.645-8.395 7.742-14.977 16.164-14.977h44.86c8.554 0 15.66 6.688 16.18 15.227l1.894 31.14c.437 7.23 5.37 13.496 12.27 15.59a186.309 186.309 0 0136.1 15.293c6.313 3.5 14.247 2.684 19.747-2.035l23.402-20.082c6.391-5.484 16.063-5.113 22.016.84l31.723 31.726c6.047 6.047 6.343 15.801.675 22.203l-20.707 23.387c-4.8 5.426-5.742 13.348-2.34 19.715a186.075 186.075 0 0114.743 36.316c1.988 6.93 8.18 11.957 15.398 12.508l30.742 2.352c8.395.64 14.973 7.738 14.973 16.16zm0 0"/><path d="M247.387 90.902c-40.766 2.059-79.301 19.278-108.504 48.485-29.207 29.207-46.426 67.742-48.485 108.511-1.785 35.2 7.325 69.32 26.34 98.676A7.488 7.488 0 00123.04 350c1.398 0 2.813-.39 4.07-1.207a7.501 7.501 0 002.22-10.371c-17.294-26.695-25.575-57.735-23.95-89.766 1.871-37.05 17.539-72.09 44.11-98.66 26.57-26.574 61.609-42.242 98.656-44.113 76.816-3.899 144.12 50.176 156.644 125.785.676 4.086 4.54 6.844 8.625 6.172a7.503 7.503 0 006.176-8.625c-13.774-83.137-87.82-142.602-172.203-138.313zm0 0"/></svg><svg fill="none" viewBox="0 0 30 30" id="about_growth" xmlns="http://www.w3.org/2000/svg"><path d="M26.25 25H25V6.25a1.25 1.25 0 00-2.5 0V25H20V11.25a1.25 1.25 0 00-2.5 0V25H15v-8.75a1.25 1.25 0 00-2.5 0V25H10v-3.75a1.25 1.25 0 00-2.5 0V25H5V3.75a1.25 1.25 0 00-2.5 0v22.5a1.25 1.25 0 001.25 1.25h22.5a1.25 1.25 0 000-2.5z" fill="#fff"/></svg><svg fill="none" viewBox="0 0 30 30" id="about_law" xmlns="http://www.w3.org/2000/svg"><path d="M28.125 18.75a5.625 5.625 0 10-9.375 4.18V30l3.75-1.776L26.25 30v-7.07a5.606 5.606 0 001.875-4.18zm-3.75 8.287L22.5 26.15l-1.875.888v-2.99a5.52 5.52 0 003.75 0v2.99zM22.5 22.5a3.75 3.75 0 110-7.501 3.75 3.75 0 010 7.5z" fill="#fff"/><path d="M23.438 4.688h-2.813V3.75a1.88 1.88 0 00-1.875-1.875h-7.5A1.88 1.88 0 009.375 3.75v.938H6.562a1.88 1.88 0 00-1.875 1.875V26.25a1.88 1.88 0 001.875 1.875H15V26.25H6.562V6.562h2.813v2.813h11.25V6.562h2.813v4.688h1.875V6.562a1.88 1.88 0 00-1.875-1.875zM18.75 7.5h-7.5V3.75h7.5V7.5z" fill="#fff"/></svg><svg viewBox="0 0 35 36" id="adaptive_menu" xmlns="http://www.w3.org/2000/svg"><path fill-rule="evenodd" clip-rule="evenodd" d="M5.25 10c0-.332.184-.65.513-.884.328-.234.773-.366 1.237-.366h21c.464 0 .91.132 1.237.366.329.235.513.552.513.884 0 .332-.184.65-.513.884-.328.234-.773.366-1.237.366H7c-.464 0-.91-.132-1.237-.366-.329-.235-.513-.553-.513-.884zM5.25 17.5c0-.331.184-.65.513-.884.328-.234.773-.366 1.237-.366h21c.464 0 .91.132 1.237.366.329.235.513.553.513.884 0 .331-.184.65-.513.884-.328.234-.773.366-1.237.366H7c-.464 0-.91-.132-1.237-.366-.329-.235-.513-.553-.513-.884zM15.75 25c0-.331.184-.65.513-.884.328-.234.773-.366 1.237-.366H28c.464 0 .91.132 1.237.366.329.235.513.553.513.884 0 .331-.184.65-.513.884-.328.234-.773.366-1.237.366H17.5c-.464 0-.91-.132-1.237-.366-.329-.235-.513-.553-.513-.884z"/></svg><svg fill="none" viewBox="0 0 29 29" id="apple_store" xmlns="http://www.w3.org/2000/svg"><g clip-path="url(#ahclip0_1829_97166)"><path d="M21.952 0H6.365C2.849 0 0 2.855 0 6.377V21.94c0 3.522 2.85 6.378 6.365 6.378h15.588c3.515 0 6.364-2.856 6.364-6.378V6.377c0-3.522-2.85-6.377-6.365-6.377zM7.908 22.474a1.413 1.413 0 01-1.937.508 1.42 1.42 0 01-.506-1.941l.206-.353a3.464 3.464 0 011.143-.166h.003a2.36 2.36 0 011.745.834l-.654 1.118zm7.959-3.373H4.955a1.418 1.418 0 010-2.837h3.303l4.153-7.101-1.282-2.193a1.42 1.42 0 01.505-1.942 1.415 1.415 0 011.938.507l.48.82.48-.82a1.414 1.414 0 011.937-.507 1.42 1.42 0 01.505 1.942l-5.434 9.294h2.959c.442.295.822.685 1.096 1.163l.003.003c.311.543.38 1.13.269 1.671zm7.494 0h-1.857l1.135 1.939a1.42 1.42 0 01-1.22 2.135c-.486 0-.96-.251-1.223-.701l-4.355-7.447a3.549 3.549 0 01.077-3.506l.585-.974 3.342 5.717h3.516a1.418 1.418 0 010 2.837z" fill="#34495E"/></g><defs><clipPath id="ahclip0_1829_97166"><path fill="#fff" d="M0 0h28.317v28.317H0z"/></clipPath></defs></svg><svg fill="none" viewBox="0 0 30 30" id="application-pdf" xmlns="http://www.w3.org/2000/svg"><path d="M22.594 1.942L27.81 7.38v20.677H8.324v.068h19.553V7.448l-5.283-5.506z" fill="#909090"/><path d="M22.529 1.875H8.257v26.183H27.81V7.38l-5.282-5.506" fill="#F4F4F4"/><path d="M21.067 9.573H2.245V3.168h18.822v6.405zM20.42 18.99s2.988-.543 2.988.478-1.851.606-2.988-.479zm-2.21.077a7.068 7.068 0 00-1.381.458l.375-.843c.375-.844.764-1.994.764-1.994.448.753.968 1.46 1.555 2.11-.443.067-.88.157-1.313.27v-.001zm-1.183-6.094c0-.89.288-1.132.512-1.132.224 0 .476.107.484.88a10.115 10.115 0 01-.484 2.282 4.15 4.15 0 01-.513-2.027v-.003zm-4.359 9.859c-.916-.549 1.923-2.237 2.438-2.291-.003 0-1.478 2.865-2.438 2.291zm11.613-3.243c-.01-.094-.093-1.131-1.94-1.087-.77-.013-1.54.042-2.3.162a11.761 11.761 0 01-1.886-2.49c.324-.937.52-1.915.584-2.905-.027-1.126-.297-1.77-1.159-1.761-.862.01-.988.764-.875 1.887.111.755.321 1.492.624 2.192 0 0-.399 1.24-.926 2.474-.526 1.234-.886 1.88-.886 1.88a9.017 9.017 0 00-2.555 1.313c-.773.72-1.087 1.271-.68 1.824.35.476 1.578.584 2.675-.854a21.136 21.136 0 001.594-2.336s1.672-.458 2.192-.584c.52-.125 1.15-.225 1.15-.225s1.527 1.537 3 1.482c1.473-.054 1.401-.88 1.392-.97" fill="#DD2025"/><path d="M22.457 1.947v5.506h5.281l-5.281-5.506z" fill="#909090"/><path d="M22.53 1.875v5.506h5.28l-5.28-5.506z" fill="#F4F4F4"/><path d="M8.414 4.178H7.19v4.5h.967V7.162l.214.012c.207-.004.412-.04.607-.11.17-.059.328-.152.462-.273.135-.116.242-.261.311-.425.094-.274.128-.564.099-.852a2.097 2.097 0 00-.107-.603 1.1 1.1 0 00-.644-.61 2.015 2.015 0 00-.685-.123h.001zM8.236 6.33h-.083V4.942h.182a.534.534 0 01.43.17c.113.15.173.334.171.522 0 .231 0 .44-.208.587a.883.883 0 01-.49.107M11.677 4.166c-.104 0-.205.008-.276.01l-.22.006h-.732v4.5h.86a2.51 2.51 0 00.965-.164c.247-.098.466-.256.637-.46.166-.206.286-.446.35-.702.073-.291.11-.59.107-.89.018-.354-.01-.71-.082-1.057a1.666 1.666 0 00-.877-1.062 2.26 2.26 0 00-.514-.167 1.201 1.201 0 00-.214-.016l-.004.002zm-.166 3.69h-.094V4.982h.012a.996.996 0 01.562.1c.128.102.231.23.304.375.079.153.124.321.133.493.009.207 0 .375 0 .515.004.16-.006.322-.03.48a1.647 1.647 0 01-.16.47 1.06 1.06 0 01-.34.337.63.63 0 01-.39.1M16.268 4.182H13.99v4.5h.964V6.897h1.219v-.836h-1.219V5.018h1.313v-.836" fill="#fff"/></svg><svg viewBox="0 0 12 13" id="arrow__right" xmlns="http://www.w3.org/2000/svg"><path d="M5 10a.5.5 0 01-.385-.82l2.24-2.68-2.16-2.685a.5.5 0 01.075-.705.5.5 0 01.73.075l2.415 3a.5.5 0 010 .635l-2.5 3A.5.5 0 015 10z"/></svg><svg viewBox="0 0 40 40" id="button_up" xmlns="http://www.w3.org/2000/svg"><path d="M8.068 25.076a1.875 1.875 0 002.65 0L20 15.794l9.281 9.282a1.875 1.875 0 002.652-2.652L21.326 11.818a1.875 1.875 0 00-2.652 0L8.068 22.424a1.875 1.875 0 000 2.652z"/></svg><svg fill="none" viewBox="0 0 688 433" id="error_page" xmlns="http://www.w3.org/2000/svg"><g clip-path="url(#alclip0_743_44307)"><path d="M636.268 49.913H104.031c-15.464 0-28 12.536-28 28V391.6c0 15.464 12.536 28 28 28h532.237c15.464 0 28-12.536 28-28V77.913c0-15.464-12.536-28-28-28z" fill="#fff" stroke="#DEE2E6" stroke-width="4"/><path d="M580.205 77.091H539.44c-6.4 0-11.589 5.188-11.589 11.589 0 6.4 5.189 11.588 11.589 11.588h40.765c6.4 0 11.589-5.188 11.589-11.588 0-6.4-5.189-11.589-11.589-11.589zM494.144 77.091h-40.765c-6.4 0-11.589 5.188-11.589 11.589 0 6.4 5.189 11.588 11.589 11.588h40.765c6.4 0 11.589-5.188 11.589-11.588 0-6.4-5.189-11.589-11.589-11.589zM419.672 88.68c0-6.4-5.188-11.589-11.589-11.589-6.4 0-11.588 5.188-11.588 11.589 0 6.4 5.188 11.588 11.588 11.588 6.401 0 11.589-5.188 11.589-11.588z" fill="#fff" stroke="#DEE2E6" stroke-width="4"/><path d="M149.553 292.315h79.058v28.953h33.296v-28.953h20.428v-27.908h-20.428v-107.85h-43.591L149.553 264.89v27.425zm79.701-27.908h-44.636v-1.287l43.349-68.602h1.287v69.889zm140.864 60.48c41.419 0 66.431-31.527 66.512-85.814.08-53.884-25.254-84.768-66.512-84.768-41.338 0-66.431 30.803-66.511 84.768-.161 54.126 25.012 85.733 66.511 85.814zm0-28.873c-18.899 0-31.124-18.98-31.044-56.941.081-37.397 12.225-56.217 31.044-56.217 18.739 0 30.964 18.82 30.964 56.217.08 37.961-12.144 56.941-30.964 56.941zm88.85-3.699h79.058v28.953h33.296v-28.953h20.428v-27.908h-20.428v-107.85h-43.591L458.968 264.89v27.425zm79.701-27.908h-44.636v-1.287l43.349-68.602h1.287v69.889z" fill="#337AB7" fill-opacity=".9"/><path d="M132.047 86.415a9.324 9.324 0 10-18.649 0 9.324 9.324 0 0018.649 0z" fill="#fff" stroke="#E9ECEF" stroke-width="4"/><path d="M83.698 298.712c6.535 0 11.833 5.298 11.833 11.833s-5.298 11.833-11.833 11.833-11.833-5.298-11.833-11.833 5.298-11.833 11.833-11.833zM673.404 170.957c-7.925 4.575-18.058 1.86-22.634-6.065-4.575-7.925-1.86-18.058 6.065-22.634 7.925-4.575 18.058-1.86 22.634 6.065 4.575 7.925 1.86 18.058-6.065 22.634z" fill="#34495E"/><path d="M363.813 100.921c-6.82 0-12.349-5.529-12.349-12.349s5.529-12.349 12.349-12.349 12.349 5.529 12.349 12.349-5.529 12.349-12.349 12.349z" fill="#DEE2E6"/><path d="M216.16 59.268c9.077 0 16.435-7.358 16.435-16.435 0-9.077-7.358-16.435-16.435-16.435-9.077 0-16.435 7.358-16.435 16.435 0 9.077 7.358 16.435 16.435 16.435zM451.114 341.2c-7.505 0-13.589 6.084-13.589 13.589 0 7.505 6.084 13.589 13.589 13.589 7.505 0 13.589-6.084 13.589-13.589 0-7.505-6.084-13.589-13.589-13.589z" fill="#34495E"/><path d="M199.76 393.358c-6.898 0-12.49-5.592-12.49-12.49 0-6.898 5.592-12.49 12.49-12.49 6.898 0 12.49 5.592 12.49 12.49 0 6.898-5.592 12.49-12.49 12.49zM324.767 334.557c4.477 2.584 6.011 8.309 3.426 12.786a9.36 9.36 0 11-3.426-12.786zM633.457 74.478l-17.024 17.024a1.588 1.588 0 002.245 2.245l17.024-17.024a1.588 1.588 0 10-2.245-2.245zM631.791 86.668l-4.909 4.91a1.588 1.588 0 002.245 2.244l4.909-4.91a1.587 1.587 0 10-2.245-2.244zM108.386 375.044l-15.234 15.234a1.42 1.42 0 000 2.008v.001a1.421 1.421 0 002.009 0l15.234-15.234a1.42 1.42 0 000-2.008l-.001-.001a1.419 1.419 0 00-2.008 0zM106.895 385.95l-4.394 4.394a1.42 1.42 0 000 2.008l.001.001a1.42 1.42 0 002.008 0l4.394-4.394a1.419 1.419 0 000-2.008l-.001-.001a1.419 1.419 0 00-2.008 0zM34.56 78.787l29.448-29.45a2.746 2.746 0 10-3.883-3.883l-29.449 29.45a2.746 2.746 0 103.883 3.883zM37.443 57.702l8.493-8.493a2.746 2.746 0 10-3.883-3.884l-8.493 8.493a2.746 2.746 0 103.883 3.884zM619.411 395.566l20.731-20.732a1.933 1.933 0 10-2.734-2.734l-20.731 20.732a1.933 1.933 0 102.734 2.734zM621.44 380.723l5.979-5.979a1.933 1.933 0 00-2.733-2.734l-5.98 5.979a1.933 1.933 0 102.734 2.734z" fill="#DEE2E6"/><path fill-rule="evenodd" clip-rule="evenodd" d="M605.429 13.773h3.304c.799 0 1.442.65 1.442 1.442v3.304c0 .799-.65 1.442-1.442 1.442h-3.304c-.792 0-1.442-.65-1.442-1.442v-3.304a1.453 1.453 0 01.421-1.02 1.443 1.443 0 011.021-.422zm11.455 0h3.304c.792 0 1.442.65 1.442 1.442v3.304c0 .799-.65 1.442-1.442 1.442h-3.304c-.792 0-1.442-.65-1.442-1.442v-3.304c0-.792.65-1.442 1.442-1.442zm11.463 0h3.304c.793 0 1.443.65 1.443 1.442v3.304c0 .799-.65 1.442-1.443 1.442h-3.304c-.792 0-1.442-.65-1.442-1.442v-3.304a1.453 1.453 0 01.421-1.02 1.443 1.443 0 011.021-.422zm11.456 0h3.304c.792 0 1.442.65 1.442 1.442v3.304c0 .799-.65 1.442-1.442 1.442h-3.304a1.45 1.45 0 01-1.449-1.442v-3.304a1.457 1.457 0 011.449-1.442zm11.456 0h3.304c.799 0 1.449.65 1.449 1.442v3.304c0 .799-.65 1.442-1.449 1.442h-3.304c-.792 0-1.442-.65-1.442-1.442v-3.304c0-.792.65-1.442 1.442-1.442zm-33.955 12.492h3.304c.793 0 1.443.65 1.443 1.442v3.311c0 .792-.65 1.442-1.443 1.442h-3.304c-.799 0-1.442-.65-1.442-1.442v-3.304a1.443 1.443 0 01.888-1.34c.176-.072.364-.11.554-.109zm11.456 0h3.304c.792 0 1.442.65 1.442 1.442v3.311c0 .792-.65 1.442-1.442 1.442h-3.304c-.792 0-1.442-.65-1.442-1.442v-3.304a1.443 1.443 0 01.888-1.34c.176-.072.364-.11.554-.109zm11.456 0h3.304c.799 0 1.449.65 1.449 1.442v3.311a1.451 1.451 0 01-1.449 1.442h-3.304c-.792 0-1.442-.65-1.442-1.442v-3.304c0-.799.65-1.449 1.442-1.449zM628.347.353h3.304c.793 0 1.443.65 1.443 1.442V5.1c0 .798-.65 1.442-1.443 1.442h-3.304c-.792 0-1.442-.65-1.442-1.442V1.795a1.453 1.453 0 01.421-1.02 1.444 1.444 0 011.021-.422zm11.456 0h3.304c.792 0 1.442.65 1.442 1.442V5.1c0 .798-.65 1.442-1.442 1.442h-3.304a1.451 1.451 0 01-1.449-1.442V1.795a1.457 1.457 0 011.449-1.442zM8.663 403.313h3.304c.799 0 1.442.65 1.442 1.442v3.304c0 .799-.65 1.442-1.442 1.442H8.663c-.792 0-1.442-.65-1.442-1.442v-3.304a1.439 1.439 0 011.442-1.442zm11.455 0h3.304c.793 0 1.443.65 1.443 1.442v3.304c0 .799-.65 1.442-1.443 1.442h-3.304c-.792 0-1.442-.65-1.442-1.442v-3.304c0-.792.65-1.442 1.442-1.442zm11.463 0h3.305c.792 0 1.442.65 1.442 1.442v3.304c0 .799-.65 1.442-1.442 1.442h-3.305c-.792 0-1.442-.65-1.442-1.442v-3.304a1.443 1.443 0 01.89-1.333c.175-.072.363-.109.552-.109zm11.456 0h3.304c.792 0 1.442.65 1.442 1.442v3.304c0 .799-.65 1.442-1.442 1.442h-3.304a1.45 1.45 0 01-1.449-1.442v-3.304a1.456 1.456 0 011.449-1.442zm11.456 0h3.304c.799 0 1.449.65 1.449 1.442v3.304c0 .799-.65 1.442-1.449 1.442h-3.304c-.792 0-1.442-.65-1.442-1.442v-3.304c0-.792.65-1.442 1.442-1.442zm-33.954 12.492h3.304c.792 0 1.442.65 1.442 1.442v3.311c0 .792-.65 1.442-1.442 1.442h-3.304c-.799 0-1.443-.65-1.443-1.442v-3.304a1.44 1.44 0 011.443-1.449zm11.455 0h3.304c.792 0 1.442.65 1.442 1.442v3.311c0 .792-.65 1.442-1.442 1.442h-3.304c-.792 0-1.442-.65-1.442-1.442v-3.304a1.44 1.44 0 011.442-1.449zm11.456 0h3.304c.799 0 1.449.65 1.449 1.442v3.311A1.45 1.45 0 0146.754 422H43.45c-.792 0-1.442-.65-1.442-1.442v-3.304c0-.799.65-1.449 1.442-1.449zm-11.868-25.912h3.304c.792 0 1.442.65 1.442 1.443v3.304c0 .799-.65 1.442-1.442 1.442h-3.304c-.793 0-1.443-.65-1.443-1.442v-3.304a1.444 1.444 0 01.89-1.334c.176-.072.363-.109.553-.109zm11.455 0h3.304c.792 0 1.442.65 1.442 1.443v3.304c0 .799-.65 1.442-1.442 1.442h-3.304a1.45 1.45 0 01-1.449-1.442v-3.304a1.457 1.457 0 011.449-1.443z" fill="#DEE2E6"/><path fill-rule="evenodd" clip-rule="evenodd" d="M77.882 236.922c-24.64 0-44.617-20.259-44.617-45.246 0-24.987 19.977-45.245 44.617-45.245 24.64 0 44.617 20.258 44.617 45.245s-19.977 45.246-44.617 45.246z" fill="#34495E"/><path d="M95.857 172.476l-18.848 20.109-11.316-12.064" stroke="#fff" stroke-width="7.405" stroke-linecap="round" stroke-linejoin="round"/><path d="M58.178 211.835l18.848-20.109 11.316 12.064" stroke="#fff" stroke-width="7.405" stroke-linecap="round" stroke-linejoin="round"/></g><defs><clipPath id="alclip0_743_44307"><path fill="#fff" d="M0 0h688v433H0z"/></clipPath></defs></svg><svg viewBox="0 0 48 48" id="excel-icon" xmlns="http://www.w3.org/2000/svg"><path fill="#169154" d="M29 6H15.744C14.781 6 14 6.781 14 7.744v7.259h15V6z"/><path fill="#18482a" d="M14 33.054v7.202c0 .963.781 1.744 1.743 1.744H29v-8.946H14z"/><path fill="#0c8045" d="M14 15.003h15v9.002H14z"/><path fill="#17472a" d="M14 24.005h15v9.05H14z"/><path fill="#29c27f" d="M42.256 6H29v9.003h15V7.744C44 6.781 43.219 6 42.256 6z"/><path fill="#27663f" d="M29 33.054V42h13.257c.962 0 1.743-.781 1.743-1.743v-7.202H29z"/><path fill="#19ac65" d="M29 15.003h15v9.002H29z"/><path fill="#129652" d="M29 24.005h15v9.05H29z"/><path fill="#0c7238" d="M22.319 34H5.681A1.682 1.682 0 014 32.319V15.681C4 14.753 4.753 14 5.681 14h16.638c.928 0 1.681.753 1.681 1.681v16.638c0 .928-.753 1.681-1.681 1.681z"/><path fill="#fff" d="M9.807 19h2.386l1.936 3.754L16.175 19h2.229l-3.071 5 3.141 5h-2.351l-2.11-3.93L11.912 29H9.526l3.193-5.018z"/></svg><svg fill="none" viewBox="0 0 26 29" id="google_play" xmlns="http://www.w3.org/2000/svg"><path d="M4.743.36A2.456 2.456 0 002.385.249L15.1 12.988l4.157-4.176L4.743.361zM1.217 1.428a2.59 2.59 0 00-.246 1.106V25.84c0 .39.087.762.249 1.095l12.708-12.77L1.218 1.428zM15.101 15.34L2.408 28.093c.336.156.695.224 1.053.224.442 0 .882-.106 1.282-.346l14.516-8.464L15.1 15.34zm9.682-3.309a.212.212 0 00-.015-.01l-4.03-2.346-4.467 4.488 4.47 4.48 4.042-2.357a2.47 2.47 0 001.197-2.128 2.47 2.47 0 00-1.197-2.127z" fill="#34495E"/></svg><svg fill="none" viewBox="0 0 30 30" id="honest_sign" xmlns="http://www.w3.org/2000/svg"><path d="M10 3.75H5c-.69 0-1.25.56-1.25 1.25v5M10 26.25H5c-.69 0-1.25-.56-1.25-1.25v-5M20 26.25h5c.69 0 1.25-.56 1.25-1.25v-5M20 3.75h5c.69 0 1.25.56 1.25 1.25v5M10 15l3.75 3.75 6.25-7.5" stroke="#fff" stroke-width="3.17" stroke-linecap="round" stroke-linejoin="round"/></svg><svg viewBox="0 0 502.664 502.664" id="icon" xmlns="http://www.w3.org/2000/svg"><g fill="#010002"><path d="M153.821 358.226L0 274.337v-46.463l153.821-83.414v54.574L46.636 250.523l107.185 53.431v54.272zM180.094 387.584L282.103 115.08h32.227L212.084 387.584h-31.99zM348.843 358.226v-54.272l107.164-52.999-107.164-52.59v-53.927l153.821 83.522v46.183l-153.821 84.083z"/></g></svg><svg viewBox="0 0 48 48" id="icon-doc" xmlns="http://www.w3.org/2000/svg"><path fill="#2d92d4" d="M42.256 6H15.744C14.781 6 14 6.781 14 7.744v7.259h30V7.744C44 6.781 43.219 6 42.256 6z"/><path fill="#2150a9" d="M14 33.054v7.202c0 .963.781 1.744 1.743 1.744h26.513c.963 0 1.744-.781 1.744-1.744v-7.202H14z"/><path fill="#2d83d4" d="M14 15.003h30v9.002H14z"/><path fill="#2e70c9" d="M14 24.005h30v9.05H14z"/><path fill="#00488d" d="M22.319 34H5.681A1.682 1.682 0 014 32.319V15.681C4 14.753 4.753 14 5.681 14h16.638c.928 0 1.681.753 1.681 1.681v16.638c0 .928-.753 1.681-1.681 1.681z"/><path fill="#fff" d="M18.403 19l-1.546 7.264L15.144 19h-2.187l-1.767 7.489L9.597 19H7.641l2.344 10h2.352l1.713-7.689L15.764 29h2.251l2.344-10z"/></svg><svg fill="none" viewBox="0 0 30 30" id="icon-pdf" xmlns="http://www.w3.org/2000/svg"><path d="M22.594 1.942L27.81 7.38v20.677H8.324v.068h19.553V7.448l-5.283-5.506z" fill="#909090"/><path d="M22.529 1.875H8.257v26.183H27.81V7.38l-5.282-5.506" fill="#F4F4F4"/><path d="M21.067 9.573H2.245V3.168h18.822v6.405zM20.42 18.99s2.988-.543 2.988.478-1.851.606-2.988-.479zm-2.21.077a7.068 7.068 0 00-1.381.458l.375-.843c.375-.844.764-1.994.764-1.994.448.753.968 1.46 1.555 2.11-.443.067-.88.157-1.313.27v-.001zm-1.183-6.094c0-.89.288-1.132.512-1.132.224 0 .476.107.484.88a10.115 10.115 0 01-.484 2.282 4.15 4.15 0 01-.513-2.027v-.003zm-4.359 9.859c-.916-.549 1.923-2.237 2.438-2.291-.003 0-1.478 2.865-2.438 2.291zm11.613-3.243c-.01-.094-.093-1.131-1.94-1.087-.77-.013-1.54.042-2.3.162a11.761 11.761 0 01-1.886-2.49c.324-.937.52-1.915.584-2.905-.027-1.126-.297-1.77-1.159-1.761-.862.01-.988.764-.875 1.887.111.755.321 1.492.624 2.192 0 0-.399 1.24-.926 2.474-.526 1.234-.886 1.88-.886 1.88a9.017 9.017 0 00-2.555 1.313c-.773.72-1.087 1.271-.68 1.824.35.476 1.578.584 2.675-.854a21.136 21.136 0 001.594-2.336s1.672-.458 2.192-.584c.52-.125 1.15-.225 1.15-.225s1.527 1.537 3 1.482c1.473-.054 1.401-.88 1.392-.97" fill="#DD2025"/><path d="M22.457 1.947v5.506h5.281l-5.281-5.506z" fill="#909090"/><path d="M22.53 1.875v5.506h5.28l-5.28-5.506z" fill="#F4F4F4"/><path d="M8.414 4.178H7.19v4.5h.967V7.162l.214.012c.207-.004.412-.04.607-.11.17-.059.328-.152.462-.273.135-.116.242-.261.311-.425.094-.274.128-.564.099-.852a2.097 2.097 0 00-.107-.603 1.1 1.1 0 00-.644-.61 2.015 2.015 0 00-.685-.123h.001zM8.236 6.33h-.083V4.942h.182a.534.534 0 01.43.17c.113.15.173.334.171.522 0 .231 0 .44-.208.587a.883.883 0 01-.49.107M11.677 4.166c-.104 0-.205.008-.276.01l-.22.006h-.732v4.5h.86a2.51 2.51 0 00.965-.164c.247-.098.466-.256.637-.46.166-.206.286-.446.35-.702.073-.291.11-.59.107-.89.018-.354-.01-.71-.082-1.057a1.666 1.666 0 00-.877-1.062 2.26 2.26 0 00-.514-.167 1.201 1.201 0 00-.214-.016l-.004.002zm-.166 3.69h-.094V4.982h.012a.996.996 0 01.562.1c.128.102.231.23.304.375.079.153.124.321.133.493.009.207 0 .375 0 .515.004.16-.006.322-.03.48a1.647 1.647 0 01-.16.47 1.06 1.06 0 01-.34.337.63.63 0 01-.39.1M16.268 4.182H13.99v4.5h.964V6.897h1.219v-.836h-1.219V5.018h1.313v-.836" fill="#fff"/></svg><svg viewBox="0 0 48 48" id="icon-spreadsheetml.sheet" xmlns="http://www.w3.org/2000/svg"><path fill="#169154" d="M29 6H15.744C14.781 6 14 6.781 14 7.744v7.259h15V6z"/><path fill="#18482a" d="M14 33.054v7.202c0 .963.781 1.744 1.743 1.744H29v-8.946H14z"/><path fill="#0c8045" d="M14 15.003h15v9.002H14z"/><path fill="#17472a" d="M14 24.005h15v9.05H14z"/><path fill="#29c27f" d="M42.256 6H29v9.003h15V7.744C44 6.781 43.219 6 42.256 6z"/><path fill="#27663f" d="M29 33.054V42h13.257c.962 0 1.743-.781 1.743-1.743v-7.202H29z"/><path fill="#19ac65" d="M29 15.003h15v9.002H29z"/><path fill="#129652" d="M29 24.005h15v9.05H29z"/><path fill="#0c7238" d="M22.319 34H5.681A1.682 1.682 0 014 32.319V15.681C4 14.753 4.753 14 5.681 14h16.638c.928 0 1.681.753 1.681 1.681v16.638c0 .928-.753 1.681-1.681 1.681z"/><path fill="#fff" d="M9.807 19h2.386l1.936 3.754L16.175 19h2.229l-3.071 5 3.141 5h-2.351l-2.11-3.93L11.912 29H9.526l3.193-5.018z"/></svg><svg viewBox="0 0 48 48" id="icon-wordprocessingml.document" xmlns="http://www.w3.org/2000/svg"><path fill="#2d92d4" d="M42.256 6H15.744C14.781 6 14 6.781 14 7.744v7.259h30V7.744C44 6.781 43.219 6 42.256 6z"/><path fill="#2150a9" d="M14 33.054v7.202c0 .963.781 1.744 1.743 1.744h26.513c.963 0 1.744-.781 1.744-1.744v-7.202H14z"/><path fill="#2d83d4" d="M14 15.003h30v9.002H14z"/><path fill="#2e70c9" d="M14 24.005h30v9.05H14z"/><path fill="#00488d" d="M22.319 34H5.681A1.682 1.682 0 014 32.319V15.681C4 14.753 4.753 14 5.681 14h16.638c.928 0 1.681.753 1.681 1.681v16.638c0 .928-.753 1.681-1.681 1.681z"/><path fill="#fff" d="M18.403 19l-1.546 7.264L15.144 19h-2.187l-1.767 7.489L9.597 19H7.641l2.344 10h2.352l1.713-7.689L15.764 29h2.251l2.344-10z"/></svg><svg viewBox="0 0 48 48" id="icon-xls" xmlns="http://www.w3.org/2000/svg"><path fill="#169154" d="M29 6H15.744C14.781 6 14 6.781 14 7.744v7.259h15V6z"/><path fill="#18482a" d="M14 33.054v7.202c0 .963.781 1.744 1.743 1.744H29v-8.946H14z"/><path fill="#0c8045" d="M14 15.003h15v9.002H14z"/><path fill="#17472a" d="M14 24.005h15v9.05H14z"/><path fill="#29c27f" d="M42.256 6H29v9.003h15V7.744C44 6.781 43.219 6 42.256 6z"/><path fill="#27663f" d="M29 33.054V42h13.257c.962 0 1.743-.781 1.743-1.743v-7.202H29z"/><path fill="#19ac65" d="M29 15.003h15v9.002H29z"/><path fill="#129652" d="M29 24.005h15v9.05H29z"/><path fill="#0c7238" d="M22.319 34H5.681A1.682 1.682 0 014 32.319V15.681C4 14.753 4.753 14 5.681 14h16.638c.928 0 1.681.753 1.681 1.681v16.638c0 .928-.753 1.681-1.681 1.681z"/><path fill="#fff" d="M9.807 19h2.386l1.936 3.754L16.175 19h2.229l-3.071 5 3.141 5h-2.351l-2.11-3.93L11.912 29H9.526l3.193-5.018z"/></svg><svg fill="none" viewBox="0 0 35 35" id="icon__delete" xmlns="http://www.w3.org/2000/svg"><path d="M17.5 2.552a4.74 4.74 0 014.732 4.471l.007.269h7.657a1.094 1.094 0 01.148 2.177l-.148.01h-1.161l-1.867 18.988a4.01 4.01 0 01-3.735 3.608l-.256.008H12.123a4.01 4.01 0 01-3.958-3.364l-.033-.254L6.263 9.48H5.104a1.094 1.094 0 01-1.084-.945l-.01-.149a1.094 1.094 0 01.945-1.083l.149-.01h7.656a4.74 4.74 0 014.74-4.74zm9.037 6.927H8.461l1.848 18.772a1.823 1.823 0 001.629 1.636l.185.009h10.754c.875 0 1.617-.62 1.786-1.462l.03-.183 1.843-18.772h.001zm-6.485 4.01a1.093 1.093 0 011.084.945l.01.15v10.208a1.094 1.094 0 01-2.178.148l-.01-.148V14.583a1.094 1.094 0 011.094-1.094zm-5.104 0a1.093 1.093 0 011.083.945l.01.15v10.208a1.094 1.094 0 01-2.177.148l-.01-.148V14.583a1.093 1.093 0 011.094-1.094zM17.5 4.74a2.552 2.552 0 00-2.543 2.343l-.01.21h5.105A2.552 2.552 0 0017.5 4.739z" fill="#C33"/></svg><svg fill="none" viewBox="0 0 35 35" id="icon__edit" xmlns="http://www.w3.org/2000/svg"><path d="M27.774 10.793a2.896 2.896 0 00.855-2.062c0-.779-.304-1.51-.855-2.062l-2.313-2.313a2.897 2.897 0 00-2.062-.855c-.779 0-1.51.304-2.06.854L5.833 19.81v6.439h6.435l15.505-15.457zM23.4 6.418l2.314 2.312-2.318 2.31-2.313-2.312 2.317-2.31zM8.75 23.333v-2.311l10.267-10.235L21.33 13.1 11.065 23.333H8.75zm-2.917 5.834h23.334v2.916H5.833v-2.916z" fill="#337AB7"/></svg><svg fill="none" viewBox="0 0 25 25" id="icon__metro" xmlns="http://www.w3.org/2000/svg"><g clip-path="url(#axclip0_435_15830)"><path d="M17.295 12.344L14.71 5.823l-2.179 3.812-2.179-3.812-2.584 6.523H7.02v.98h3.891v-.98h-.576l.56-1.62 1.635 2.677 1.635-2.677.56 1.62h-.576v.98h3.907v-.98l-.762-.002zm5.557-1.992A10.347 10.347 0 0012.5 0C6.788 0 2.148 4.639 2.148 10.352c0 2.865 1.168 5.448 3.035 7.316a.838.838 0 001.433-.592.86.86 0 00-.25-.606 8.649 8.649 0 01-2.52-6.118c0-4.78 3.875-8.67 8.654-8.67 4.78 0 8.67 3.89 8.67 8.67a8.635 8.635 0 01-2.537 6.133l-7.316 7.316L12.5 25l7.332-7.332a10.304 10.304 0 003.02-7.316z" fill="orange"/></g><defs><clipPath id="axclip0_435_15830"><path fill="#fff" d="M0 0h25v25H0z"/></clipPath></defs></svg><svg viewBox="0 0 35 35" id="icon_close" xmlns="http://www.w3.org/2000/svg"><path d="M19.556 17.5l6.271-6.256a1.465 1.465 0 00-2.07-2.071l-6.257 6.27-6.256-6.27a1.464 1.464 0 00-2.07 2.07l6.27 6.257-6.27 6.256a1.457 1.457 0 000 2.071 1.458 1.458 0 002.07 0l6.256-6.27 6.256 6.27a1.458 1.458 0 002.071 0 1.46 1.46 0 000-2.07l-6.27-6.257z"/></svg><svg viewBox="0 0 35 35" id="icon_download" xmlns="http://www.w3.org/2000/svg"><path d="M1.094 21.656a1.094 1.094 0 011.093 1.094v5.469a2.187 2.187 0 002.188 2.187h26.25a2.187 2.187 0 002.188-2.187V22.75a1.093 1.093 0 112.187 0v5.469a4.375 4.375 0 01-4.375 4.375H4.375A4.375 4.375 0 010 28.219V22.75a1.094 1.094 0 011.094-1.094z"/><path d="M16.726 25.93a1.092 1.092 0 001.549 0l6.562-6.562a1.095 1.095 0 10-1.549-1.549l-4.694 4.697V3.28a1.094 1.094 0 00-2.187 0v19.235l-4.695-4.697a1.095 1.095 0 10-1.548 1.55l6.562 6.562z"/></svg><svg viewBox="0 0 36 35" id="icon_magnifier" xmlns="http://www.w3.org/2000/svg"><g clip-path="url(#baclip0_846_60420)"><path d="M35.241 33.12l-9.673-9.741c2.21-2.643 3.316-5.685 3.316-9.126 0-1.937-.376-3.783-1.128-5.537-.752-1.755-1.76-3.27-3.025-4.546-1.265-1.276-2.774-2.29-4.529-3.042A13.91 13.91 0 0014.665 0C12.09 0 9.709.632 7.521 1.897a13.942 13.942 0 00-5.178 5.178C1.08 9.263.446 11.65.446 14.235c0 2.587.633 4.974 1.897 7.162a13.941 13.941 0 005.178 5.178c2.188 1.264 4.57 1.897 7.144 1.897 3.555 0 6.677-1.174 9.365-3.52l9.639 9.706c.091.091.188.165.29.222.103.057.211.091.325.103.114.011.228.011.342 0a.835.835 0 00.325-.103c.102-.057.2-.13.29-.222.205-.205.308-.461.308-.769s-.103-.564-.308-.769zm-20.576-6.87c-2.188 0-4.204-.541-6.05-1.623a11.983 11.983 0 01-4.375-4.393c-1.07-1.845-1.606-3.85-1.606-6.015 0-2.165.535-4.17 1.606-6.016a11.982 11.982 0 014.375-4.392c1.846-1.082 3.857-1.623 6.033-1.623s4.187.54 6.033 1.623a12.116 12.116 0 014.392 4.392 11.684 11.684 0 011.623 6.016c0 3.213-1.116 5.981-3.35 8.305-2.21 2.302-4.898 3.544-8.066 3.726h-.615zm5.469-13.125h-4.375V8.75c0-.296-.108-.553-.325-.769a1.07 1.07 0 00-.786-.325c-.308 0-.564.108-.77.325a1.08 1.08 0 00-.307.769v4.375H9.196c-.319 0-.58.108-.786.325a1.08 1.08 0 00-.307.769c0 .296.102.552.307.769.205.216.467.325.786.325h4.375v4.374c0 .297.103.553.308.77.205.216.461.324.769.324s.57-.108.786-.325a1.05 1.05 0 00.325-.768v-4.375h4.375c.296 0 .552-.109.769-.325.216-.217.325-.473.325-.77 0-.296-.109-.552-.325-.768a1.05 1.05 0 00-.77-.325z"/></g><defs><clipPath id="baclip0_846_60420"><path d="M0 0h35.55v35H0z"/></clipPath></defs></svg><svg viewBox="0 0 20 20" id="icon_more" xmlns="http://www.w3.org/2000/svg"><path d="M14.167 10v-.075a.733.733 0 00-.05-.233.6.6 0 00-.092-.159.825.825 0 00-.075-.108l-2.383-2.5a.834.834 0 10-1.209 1.15l1.025 1.092H6.667a.833.833 0 100 1.666h4.658l-1.083 1.075a.834.834 0 00.27 1.366.833.833 0 00.913-.182l2.5-2.5a.833.833 0 00.175-.267.833.833 0 00.067-.325z"/></svg><svg fill="none" viewBox="0 0 11 14" id="icon_rub" xmlns="http://www.w3.org/2000/svg"><path d="M6.857 8.75C9.295 8.75 11 7.124 11 4.787S9.295.875 6.857.875h-4.68a.336.336 0 00-.344.328v5.65H.343A.336.336 0 000 7.181v1.24c0 .182.154.329.344.329h1.49v.875H.343A.336.336 0 000 9.953v1.094c0 .181.154.328.344.328h1.49v1.422c0 .181.153.328.343.328h1.678c.19 0 .343-.147.343-.328v-1.422h4.625c.19 0 .344-.147.344-.328V9.953a.336.336 0 00-.344-.328H4.198V8.75h2.659zM4.198 2.755h2.255c1.339 0 2.145.796 2.145 2.032 0 1.253-.806 2.066-2.181 2.066H4.198V2.755z" fill="#34495E"/></svg><svg viewBox="0 0 20 21" id="mail_icon" xmlns="http://www.w3.org/2000/svg"><path d="M2.5 8.297V14.5A2.5 2.5 0 005 17h10a2.5 2.5 0 002.5-2.5V7A2.5 2.5 0 0015 4.5H5A2.5 2.5 0 002.5 7v1.297zM5 5.75h10A1.25 1.25 0 0116.25 7v.925L10 11.29 3.75 7.925V7A1.25 1.25 0 015 5.75zM3.75 9.345l5.954 3.205a.625.625 0 00.592 0l5.954-3.205V14.5A1.25 1.25 0 0115 15.75H5a1.25 1.25 0 01-1.25-1.25V9.345z"/></svg><svg viewBox="0 0 512 512" id="main_hospital" xmlns="http://www.w3.org/2000/svg"><path d="M502 212h-85.917V58.042c0-5.523-4.478-10-10-10H374V10c0-5.523-4.478-10-10-10H148c-5.523 0-10 4.477-10 10v38.042h-32.083c-5.523 0-10 4.477-10 10V212H10c-5.523 0-10 4.477-10 10v280c0 5.523 4.477 10 10 10h492c5.522 0 10-4.477 10-10V222c0-5.523-4.478-10-10-10zM20 232h75.917v260H20zm95.917-163.958H211c5.523 0 10-4.477 10-10s-4.477-10-10-10h-53V20h196v28.042h-53c-5.522 0-10 4.477-10 10s4.478 10 10 10h95.083V492H360V358c0-5.523-4.478-10-10-10H162c-5.523 0-10 4.477-10 10v134h-36.083zM172 368h74v124h-74zm94 124V368h74v124zm226 0h-75.917V232H492z"/><path d="M162 320h30.667c5.523 0 10-4.477 10-10s-4.477-10-10-10H162c-5.523 0-10 4.477-10 10s4.477 10 10 10zM271.333 300h-30.667c-5.523 0-10 4.477-10 10s4.477 10 10 10h30.667c5.522 0 10-4.477 10-10s-4.478-10-10-10zM350 300h-30.667c-5.522 0-10 4.477-10 10s4.478 10 10 10H350c5.522 0 10-4.477 10-10s-4.478-10-10-10zM162 268.042h30.667c5.523 0 10-4.477 10-10s-4.477-10-10-10H162c-5.523 0-10 4.477-10 10s4.477 10 10 10zM271.333 248.042h-30.667c-5.523 0-10 4.477-10 10s4.477 10 10 10h30.667c5.522 0 10-4.477 10-10s-4.478-10-10-10zM309.333 258.042c0 5.523 4.478 10 10 10H350c5.522 0 10-4.477 10-10s-4.478-10-10-10h-30.667c-5.522 0-10 4.477-10 10zM204 190.042h20v20c0 5.523 4.477 10 10 10h44c5.522 0 10-4.477 10-10v-20h20c5.522 0 10-4.477 10-10v-44c0-5.523-4.478-10-10-10h-20v-20c0-5.523-4.478-10-10-10h-44c-5.523 0-10 4.477-10 10v20h-20c-5.523 0-10 4.477-10 10v44c0 5.522 4.477 10 10 10zm10-44h20c5.523 0 10-4.477 10-10v-20h24v20c0 5.523 4.478 10 10 10h20v24h-20c-5.522 0-10 4.477-10 10v20h-24v-20c0-5.523-4.477-10-10-10h-20zM256 68.04c2.63 0 5.21-1.07 7.069-2.93 1.86-1.86 2.931-4.44 2.931-7.07s-1.07-5.21-2.931-7.07c-1.859-1.86-4.439-2.93-7.069-2.93s-5.21 1.07-7.07 2.93-2.93 4.44-2.93 7.07 1.07 5.21 2.93 7.07 4.44 2.93 7.07 2.93z"/></svg><svg viewBox="0 0 62 61.372" id="main_manufacture" xmlns="http://www.w3.org/2000/svg"><path d="M13 56.372c1.654 0 3-1.346 3-3s-1.346-3-3-3-3 1.346-3 3 1.346 3 3 3zm0-4a1 1 0 110 2 1 1 0 010-2zM31 56.372c1.654 0 3-1.346 3-3s-1.346-3-3-3-3 1.346-3 3 1.346 3 3 3zm0-4a1 1 0 110 2 1 1 0 010-2zM49 50.372c-1.654 0-3 1.346-3 3s1.346 3 3 3 3-1.346 3-3-1.346-3-3-3zm0 4a1 1 0 110-2 1 1 0 010 2z"/><path d="M56 45.451v-12.08H42v12h-4v-12H24v12h-4v-12H6v12.08c-3.386.488-6 3.401-6 6.92v2c0 3.859 3.141 7 7 7h48c3.859 0 7-3.141 7-7v-2c0-3.518-2.614-6.432-6-6.92zm-8-10.079h2v2h-2zm-4 0h2v4h6v-4h2v10H44zm5 23c-2.757 0-5-2.243-5-5s2.243-5 5-5 5 2.243 5 5-2.243 5-5 5zm-7-5c0 2.548 1.373 4.775 3.413 6H34.587c2.04-1.225 3.413-3.452 3.413-6s-1.373-4.775-3.413-6h10.827a6.995 6.995 0 00-3.414 6zm-29-5c2.757 0 5 2.243 5 5s-2.243 5-5 5-5-2.243-5-5 2.243-5 5-5zm7 5c0-2.548-1.373-4.775-3.413-6h10.827c-2.04 1.225-3.413 3.452-3.413 6s1.373 4.775 3.413 6H16.587c2.04-1.225 3.413-3.453 3.413-6zm16 0c0 2.757-2.243 5-5 5s-5-2.243-5-5 2.243-5 5-5 5 2.243 5 5zm-6-18h2v2h-2zm-4 0h2v4h6v-4h2v10H26zm-14 0h2v2h-2zm-2 0v4h6v-4h2v10H8v-10zm-8 19v-2c0-2.757 2.243-5 5-5h2.413C7.373 48.596 6 50.824 6 53.372s1.373 4.775 3.413 6H7c-2.757 0-5-2.244-5-5zm58 0c0 2.757-2.243 5-5 5h-2.413c2.04-1.225 3.413-3.452 3.413-6s-1.373-4.775-3.413-6H55c2.757 0 5 2.243 5 5zM22.024 24.772l-.727 1.453 3.848 3.848 1.453-.727c.375.184.765.344 1.166.48l.515 1.544h5.441l.515-1.544a9.942 9.942 0 001.166-.48l1.453.727 3.848-3.848-.727-1.453c.184-.375.344-.765.48-1.166L42 23.092v-5.441l-1.544-.515c-.137-.4-.297-.79-.48-1.166l.727-1.453-3.848-3.848-1.453.727a9.773 9.773 0 00-1.166-.48l-.515-1.544H28.28l-.515 1.544a9.942 9.942 0 00-1.166.48l-1.453-.727-3.848 3.848.727 1.453a9.773 9.773 0 00-.48 1.166L20 17.651v5.441l1.544.515c.137.4.297.79.48 1.165zM22 19.092l1.164-.388.144-.509a8.021 8.021 0 01.713-1.726l.258-.462-.547-1.095 1.809-1.809 1.097.547.462-.259a7.897 7.897 0 011.724-.711l.51-.144.389-1.165h2.559l.389 1.165.51.144a7.937 7.937 0 011.724.711l.462.259 1.097-.547 1.809 1.809-.547 1.095.258.462c.301.537.54 1.118.713 1.726l.144.509 1.159.388v2.559l-1.164.388-.144.509a8.021 8.021 0 01-.713 1.726l-.258.462.547 1.095-1.808 1.809-1.097-.547-.462.259c-.534.3-1.114.539-1.725.711l-.51.144-.388 1.165h-2.559l-.388-1.165-.51-.144a7.925 7.925 0 01-1.725-.711l-.462-.259-1.094.547-1.809-1.809.547-1.095-.258-.462a8.021 8.021 0 01-.713-1.726l-.144-.509L22 21.651z"/><path d="M31 26.372c3.309 0 6-2.691 6-6s-2.691-6-6-6-6 2.691-6 6 2.691 6 6 6zm0-10c2.206 0 4 1.794 4 4s-1.794 4-4 4-4-1.794-4-4 1.794-4 4-4zM48.252 11.971a20.76 20.76 0 00-1.063-2.1l-1.73 1.002c.353.61.676 1.249.961 1.9zM45.66 31.584l5.711-2.284-.742-1.857-2.521 1.008C49.36 25.693 50 22.984 50 20.372c0-2.15-.323-4.27-.962-6.3l-1.908.6a18.98 18.98 0 01.87 5.7c0 2.602-.721 5.338-2.138 8.15l-2.062-2.75-1.6 1.2zM31 3.372c2.602 0 5.338.721 8.149 2.138L36.4 7.572l1.199 1.6 4.613-3.459L39.929 0l-1.857.743 1.008 2.52C36.321 2.012 33.612 1.372 31 1.372c-2.148 0-4.269.324-6.3.961l.6 1.908a18.999 18.999 0 015.7-.869zM23.4 4.952l-.8-1.832c-.72.314-1.426.672-2.101 1.062l1.002 1.731a18.87 18.87 0 011.899-.961zM14.811 30.873l1.73-1.002a19.099 19.099 0 01-.961-1.9l-1.832.802c.315.719.672 1.425 1.063 2.1zM13.892 12.292C12.64 15.05 12 17.759 12 20.372c0 2.15.323 4.27.962 6.3l1.908-.6a18.98 18.98 0 01-.87-5.7c0-2.602.721-5.338 2.138-8.15l2.062 2.75 1.6-1.2-3.46-4.613-5.711 2.284.742 1.857z"/></svg><svg viewBox="0 0 512 512" id="main_pharmacy" xmlns="http://www.w3.org/2000/svg"><path d="M125.696 125.994c-5.52 0-10 4.48-10 10s4.48 10 10 10 10-4.48 10-10-4.48-10-10-10zM215.691 312.984h-29.998v-29.998c0-5.522-4.478-10-10-10s-9.999 4.478-9.999 10v29.998h-29.998c-5.522 0-10 4.478-10 9.999s4.478 10 10 10h29.998v29.998c0 5.522 4.478 10 9.999 10s10-4.478 10-10v-29.998h29.998c5.522 0 10-4.478 10-10s-4.477-9.999-10-9.999z"/><path d="M485.578 321.984c-22.105-38.286-70.981-51.389-109.274-29.279l-40.618 23.45v-86.836c0-10.735-3.55-21.388-9.999-29.998L275.69 132.66v-28.386c11.638-4.128 19.999-15.242 19.999-28.279V29.998C295.687 13.457 282.23 0 265.689 0H85.698C69.157 0 55.699 13.457 55.699 29.998v45.998c0 13.035 8.361 24.151 19.999 28.279v28.386l-50.001 66.665c-6.446 8.606-9.996 19.258-9.996 29.993v193.66c0 27.569 22.429 49.997 49.997 49.997H226.4c22.421 37.583 70.767 50.161 108.664 28.279L456.3 431.258c37.955-21.918 51.494-70.779 29.278-109.274zM75.698 29.998c0-5.514 4.486-10 9.999-10h179.991c5.514 0 10 4.486 10 10v45.998c0 5.514-4.486 9.999-10 9.999H85.698c-5.514 0-9.999-4.486-9.999-9.999V29.998zM41.701 211.319l51.996-69.326a9.999 9.999 0 002-6v-29.998h159.992v19.999h-89.995c-5.522 0-10 4.478-10 10s4.478 10 10 10h94.995l48.993 65.322c3.202 4.275 5.191 9.39 5.792 14.674H35.913c.6-5.285 2.589-10.4 5.788-14.671zm23.998 241.658c-16.541 0-29.998-13.457-29.998-29.998V412.88h181.675c-3.171 12.965-3.15 26.813.481 40.098H65.699zm159.52-59.997H35.7V245.987h279.986V327.7l-60.619 35.002c-12.639 7.301-22.855 17.694-29.848 30.278zm99.847 90.955c-28.697 16.571-65.367 6.771-81.949-21.946-16.661-28.994-6.564-65.498 21.952-81.969l54.277-31.338 59.997 103.915-54.277 31.338zM446.3 413.939l-49.637 28.659-59.998-103.917 49.638-28.656c28.716-16.578 65.373-6.761 81.955 21.957 16.655 28.862 6.527 65.508-21.958 81.957z"/></svg><svg viewBox="0 0 512 512" id="main_state" xmlns="http://www.w3.org/2000/svg"><path d="M458.332 0H136.701c-5.522 0-10 4.477-10 10v264.415a50.863 50.863 0 00-17.66 7.115c-18.428 12.092-27.032 34.557-21.409 55.9l13.977 53.055h-6.977c-28.102 0-50.964 22.863-50.964 50.965v17.673c0 5.523 4.478 10 10 10h3.078v15.756c0 14.956 12.167 27.123 27.122 27.123h105.658c14.955 0 27.122-12.167 27.122-27.123v-15.756h3.078c5.522 0 10-4.477 10-10 0 0-.021-18.437-.029-18.82h228.635c5.522 0 10-4.477 10-10V10c0-5.523-4.478-10-10-10zm-351.36 332.334c-3.478-13.203 1.622-26.563 12.994-34.053 6.979-4.451 15.349-5.846 23.201-4.188 16.988 3.66 27.648 21.542 23.243 38.274l-15.307 58.116h-28.812zM63.668 441.449c0-17.074 13.891-30.965 30.964-30.965l84.134.003c16.912 0 30.961 14.129 30.961 30.962v7.673H63.668zm132.98 43.428c0 3.927-3.195 7.123-7.122 7.123H83.868c-3.927 0-7.122-3.195-7.122-7.123v-15.756h119.902zm251.684-64.575H225.138c-8.182-17.891-26.668-29.818-46.376-29.818h-6.972l13.972-53.055c7.335-27.844-10.68-57.392-39.061-63.046V20h301.631z"/><path d="M386.022 295.585h-97.267c-12.443 0-22.567 10.124-22.567 22.568v42.121c0 12.444 10.124 22.568 22.567 22.568h97.267c12.444 0 22.568-10.124 22.568-22.568v-42.121c.001-12.444-10.123-22.568-22.568-22.568zm2.569 64.688a2.57 2.57 0 01-2.568 2.568h-97.267a2.57 2.57 0 01-2.567-2.568v-42.121a2.57 2.57 0 012.567-2.568h97.267a2.57 2.57 0 012.568 2.568zM251.905 100.879h146.686c5.522 0 10-4.477 10-10s-4.478-10-10-10H251.905c-5.522 0-10 4.477-10 10s4.478 10 10 10zM206.648 171.658H398.59c5.522 0 10-4.477 10-10s-4.478-10-10-10H206.648c-5.522 0-10 4.477-10 10s4.478 10 10 10zM201.391 242.437h197.2c5.522 0 10-4.477 10-10s-4.478-10-10-10h-197.2c-5.522 0-10 4.477-10 10s4.477 10 10 10zM197.41 94.7c3.43 8.375 15.804 7.89 18.7-.608 2.942-8.63-6.789-16.432-14.599-11.791-4.198 2.495-5.978 7.897-4.101 12.399z"/></svg><svg viewBox="0 -26 512 512" id="main_warehouse" xmlns="http://www.w3.org/2000/svg"><path d="M422.59 297.996h-41.035c-5.52 0-10 4.477-10 10 0 5.524 4.48 10 10 10h41.035c5.523 0 10-4.476 10-10 0-5.523-4.477-10-10-10zm0 0M352.824 298h-.234c-5.524 0-10 4.477-10 10s4.476 10 10 10h.234c5.524 0 10-4.477 10-10s-4.476-10-10-10zm0 0"/><path d="M502 380c5.523 0 10-4.477 10-10v-32c0-5.523-4.477-10-10-10h-40.29c.571-2.18.88-4.465.88-6.82V190.82a26.69 26.69 0 00-5.95-16.82 26.696 26.696 0 005.95-16.82V26.82C462.59 12.031 450.559 0 435.77 0H272.82c-6.363 0-12.215 2.234-16.82 5.95C251.395 2.233 245.543 0 239.18 0h-102.5c-5.524 0-10 4.477-10 10v50.46a9.993 9.993 0 0010 10 9.978 9.978 0 004.472-1.054l16.555-8.277 16.55 8.277a10.004 10.004 0 009.731-.437 10.003 10.003 0 004.742-8.508V20h50.45c3.699 0 6.82 3.125 6.82 6.82v130.36c0 3.695-3.125 6.82-6.82 6.82H76.23c-3.699 0-6.82-3.125-6.82-6.82V26.82c0-2.148 1.004-4.136 2.758-5.457a7.43 7.43 0 01.758-.496c4.812-2.71 6.511-8.808 3.8-13.62-2.71-4.813-8.808-6.517-13.62-3.802a27.02 27.02 0 00-2.965 1.938c-6.72 5.058-10.73 13.07-10.73 21.437v130.36c0 6.363 2.234 12.215 5.948 16.82-3.714 4.605-5.949 10.453-5.949 16.82v130.36c0 2.355.309 4.64.88 6.82H10c-5.523 0-10 4.477-10 10v32c0 5.523 4.477 10 10 10h14v28H10c-5.523 0-10 4.477-10 10v32c0 5.523 4.477 10 10 10h492c5.523 0 10-4.477 10-10v-32c0-5.523-4.477-10-10-10h-14v-28zM168.73 44.281l-6.554-3.277a10.003 10.003 0 00-8.942 0l-6.554 3.277V20h22.05zM266 321.18V190.82c0-3.695 3.125-6.82 6.82-6.82h50.45v40.46a9.993 9.993 0 004.742 8.509 9.995 9.995 0 009.73.437l16.551-8.277 16.555 8.277a9.994 9.994 0 004.472 1.059c1.828 0 3.653-.504 5.258-1.496a9.992 9.992 0 004.742-8.504V184h50.45c3.695 0 6.82 3.125 6.82 6.82v130.36c0 3.699-3.125 6.82-6.82 6.82H272.82c-3.695 0-6.82-3.121-6.82-6.82zM365.32 184v24.281l-6.554-3.277a10.003 10.003 0 00-8.942 0l-6.554 3.277V184zM343.27 20h22.054v24.281l-6.554-3.277a10.011 10.011 0 00-8.946 0l-6.554 3.277zm-70.45 0h50.45v40.46a9.993 9.993 0 0010 10 9.978 9.978 0 004.472-1.054l16.555-8.277 16.55 8.277a10.014 10.014 0 009.731-.437 10.003 10.003 0 004.742-8.508V20h50.45c3.695 0 6.82 3.125 6.82 6.82v130.36c0 3.695-3.125 6.82-6.82 6.82H272.82c-3.695 0-6.82-3.125-6.82-6.82V26.82c0-3.695 3.125-6.82 6.82-6.82zM146.68 184h22.05v24.281l-6.554-3.277a10.003 10.003 0 00-8.942 0l-6.554 3.277zM69.41 321.18V190.82c0-3.695 3.125-6.82 6.82-6.82h50.45v40.46c0 3.47 1.793 6.688 4.742 8.509s6.629 1.988 9.73.437l16.551-8.277 16.555 8.277a9.994 9.994 0 004.472 1.059c1.829 0 3.653-.504 5.258-1.496a9.992 9.992 0 004.742-8.504V184h50.45c3.699 0 6.82 3.125 6.82 6.82v130.36c0 3.699-3.125 6.82-6.82 6.82H76.23c-3.699 0-6.82-3.121-6.82-6.82zM20 348h472v12H20zm270 60v-28h130v28zm-198 0v-28h130v28zm150-28h28v28h-28zm-198 0h28v28H44zm448 60H20v-12h472zm-24-32h-28v-28h28zm0 0"/><path d="M96.445 20h.27c5.523 0 10-4.477 10-10s-4.477-10-10-10h-.27c-5.523 0-10 4.477-10 10s4.477 10 10 10zm0 0"/></svg><svg viewBox="0 0 50 50" id="module_10" xmlns="http://www.w3.org/2000/svg"><path d="M45.25 38.3l-1.617-6.038-6.47-24.148a2.738 2.738 0 00-3.35-1.933l-6.036 1.617a2.76 2.76 0 00-.442.162A2.731 2.731 0 0025 6.64h-6.25c-.56 0-1.105.173-1.563.494a2.717 2.717 0 00-1.562-.493h-6.25a2.738 2.738 0 00-2.734 2.734v31.25a2.738 2.738 0 002.734 2.734h6.25c.56 0 1.105-.172 1.563-.493a2.717 2.717 0 001.562.493H25a2.738 2.738 0 002.734-2.734v-22.42l6.197 23.128a2.735 2.735 0 003.35 1.933l6.036-1.618a2.738 2.738 0 001.934-3.349zM30.029 17.71l6.792-1.82 4.246 15.847-6.792 1.82-4.246-15.847zm-1.882-7.466a.387.387 0 01.237-.182l6.037-1.617a.386.386 0 01.339.067.391.391 0 01.14.209l1.314 4.905-6.792 1.82-1.314-4.905a.39.39 0 01.039-.297zm-9.396-1.26H25a.391.391 0 01.39.391v23.828h-7.03V9.375a.39.39 0 01.39-.39zm-9.375 0h6.25a.391.391 0 01.39.391v5.078h-7.03V9.375a.391.391 0 01.39-.39zm6.25 32.032h-6.25a.392.392 0 01-.39-.39v-23.83h7.03v23.83a.39.39 0 01-.39.39zm9.375 0h-6.25a.391.391 0 01-.39-.39v-5.08h7.03v5.08a.39.39 0 01-.39.39zm17.71-1.632l-6.037 1.618a.39.39 0 01-.478-.276L34.88 35.82 41.672 34l1.315 4.905a.39.39 0 01-.276.478z"/></svg><svg fill="none" viewBox="0 0 30 30" id="pdf-icon" xmlns="http://www.w3.org/2000/svg"><path d="M22.594 1.942L27.81 7.38v20.677H8.324v.068h19.553V7.448l-5.283-5.506z" fill="#909090"/><path d="M22.529 1.875H8.257v26.183H27.81V7.38l-5.282-5.506" fill="#F4F4F4"/><path d="M21.067 9.573H2.245V3.168h18.822v6.405zM20.42 18.99s2.988-.543 2.988.478-1.851.606-2.988-.479zm-2.21.077a7.068 7.068 0 00-1.381.458l.375-.843c.375-.844.764-1.994.764-1.994.448.753.968 1.46 1.555 2.11-.443.067-.88.157-1.313.27v-.001zm-1.183-6.094c0-.89.288-1.132.512-1.132.224 0 .476.107.484.88a10.115 10.115 0 01-.484 2.282 4.15 4.15 0 01-.513-2.027v-.003zm-4.359 9.859c-.916-.549 1.923-2.237 2.438-2.291-.003 0-1.478 2.865-2.438 2.291zm11.613-3.243c-.01-.094-.093-1.131-1.94-1.087-.77-.013-1.54.042-2.3.162a11.761 11.761 0 01-1.886-2.49c.324-.937.52-1.915.584-2.905-.027-1.126-.297-1.77-1.159-1.761-.862.01-.988.764-.875 1.887.111.755.321 1.492.624 2.192 0 0-.399 1.24-.926 2.474-.526 1.234-.886 1.88-.886 1.88a9.017 9.017 0 00-2.555 1.313c-.773.72-1.087 1.271-.68 1.824.35.476 1.578.584 2.675-.854a21.136 21.136 0 001.594-2.336s1.672-.458 2.192-.584c.52-.125 1.15-.225 1.15-.225s1.527 1.537 3 1.482c1.473-.054 1.401-.88 1.392-.97" fill="#DD2025"/><path d="M22.457 1.947v5.506h5.281l-5.281-5.506z" fill="#909090"/><path d="M22.53 1.875v5.506h5.28l-5.28-5.506z" fill="#F4F4F4"/><path d="M8.414 4.178H7.19v4.5h.967V7.162l.214.012c.207-.004.412-.04.607-.11.17-.059.328-.152.462-.273.135-.116.242-.261.311-.425.094-.274.128-.564.099-.852a2.097 2.097 0 00-.107-.603 1.1 1.1 0 00-.644-.61 2.015 2.015 0 00-.685-.123h.001zM8.236 6.33h-.083V4.942h.182a.534.534 0 01.43.17c.113.15.173.334.171.522 0 .231 0 .44-.208.587a.883.883 0 01-.49.107M11.677 4.166c-.104 0-.205.008-.276.01l-.22.006h-.732v4.5h.86a2.51 2.51 0 00.965-.164c.247-.098.466-.256.637-.46.166-.206.286-.446.35-.702.073-.291.11-.59.107-.89.018-.354-.01-.71-.082-1.057a1.666 1.666 0 00-.877-1.062 2.26 2.26 0 00-.514-.167 1.201 1.201 0 00-.214-.016l-.004.002zm-.166 3.69h-.094V4.982h.012a.996.996 0 01.562.1c.128.102.231.23.304.375.079.153.124.321.133.493.009.207 0 .375 0 .515.004.16-.006.322-.03.48a1.647 1.647 0 01-.16.47 1.06 1.06 0 01-.34.337.63.63 0 01-.39.1M16.268 4.182H13.99v4.5h.964V6.897h1.219v-.836h-1.219V5.018h1.313v-.836" fill="#fff"/></svg><svg viewBox="0 0 20 21" id="phone_icon" xmlns="http://www.w3.org/2000/svg"><path d="M15 8.875h-1.25A1.877 1.877 0 0011.875 7V5.75A3.129 3.129 0 0115 8.875z"/><path d="M17.5 8.875h-1.25A4.38 4.38 0 0011.875 4.5V3.25A5.631 5.631 0 0117.5 8.875zM16.25 18.875h-.106C3.863 18.169 2.119 7.806 1.875 4.644A1.875 1.875 0 013.75 2.625h3.294a1.25 1.25 0 011.162.788l.95 2.337a1.25 1.25 0 01-.275 1.35L7.55 8.444a5.85 5.85 0 004.737 4.75l1.357-1.344A1.25 1.25 0 0115 11.594l2.356.944a1.25 1.25 0 01.769 1.162V17a1.875 1.875 0 01-1.875 1.875zm-12.5-15a.625.625 0 00-.625.675C3.413 8.25 5.256 17 16.212 17.625a.625.625 0 00.662-.586l.001-.039v-3.3l-2.356-.944-1.794 1.781-.3-.037C6.988 13.819 6.25 8.381 6.25 8.325l-.037-.3 1.775-1.794-.938-2.356h-3.3z"/></svg><svg fill="none" viewBox="0 0 28 26" id="play_icon" xmlns="http://www.w3.org/2000/svg"><path d="M10.014 4.979a.812.812 0 00-1.21.709v14.625a.812.812 0 001.21.708l13-7.313a.812.812 0 000-1.415l-13-7.312v-.002zm-2.835.709a2.438 2.438 0 013.632-2.124l13 7.312a2.437 2.437 0 010 4.25l-13 7.312a2.438 2.438 0 01-3.632-2.125V5.688z" fill="#34495E"/></svg><svg viewBox="0 0 35 36" id="search_icon" xmlns="http://www.w3.org/2000/svg"><path d="M16.077 7.5a8.077 8.077 0 104.99 14.428l5.291 5.29a.961.961 0 101.36-1.36l-5.291-5.29A8.077 8.077 0 0016.077 7.5zm-6.154 8.077a6.154 6.154 0 1112.308 0 6.154 6.154 0 01-12.308 0z"/></svg><svg viewBox="0 0 480 480" id="services_education" xmlns="http://www.w3.org/2000/svg"><path d="M472.004 0H8a7.998 7.998 0 00-8 7.996V168h16V16h448v176H184v16h288a7.998 7.998 0 008-7.996V8a7.998 7.998 0 00-7.996-8z"/><path d="M264 40h160v16H264zM288 88h160v16H288zM256 136h160v16H256zM255.362 68.974c-5.477-13.165-20.589-19.397-33.753-13.92-.225.094-.449.19-.671.29l-64.868 33.65A39.559 39.559 0 00160 72c0-22.091-17.909-40-40-40S80 49.909 80 72a39.604 39.604 0 008.205 24h-.333c-22.708.152-42.979 14.269-50.996 35.516L15.52 205.125c-5.084 13.206 1.5 28.034 14.707 33.118a25.626 25.626 0 0018.692-.11 25.838 25.838 0 0014.715-15.383L72 196.125v115.783a39.617 39.617 0 00-24-8.205c-22.058-.033-39.967 17.822-40 39.881a39.939 39.939 0 0012.087 28.685A36.855 36.855 0 000 404.961V472a7.998 7.998 0 007.996 8H88a7.998 7.998 0 008-7.996v-67.043A36.77 36.77 0 0081.724 376h60.553a36.764 36.764 0 00-14.276 28.961V472a7.998 7.998 0 007.996 8h80.004a7.998 7.998 0 008-7.996v-67.043a36.855 36.855 0 00-20.087-32.692c15.795-15.417 16.102-40.72.685-56.515a39.966 39.966 0 00-36.598-11.242V140.859l73.441-38.133c13.164-5.476 19.396-20.588 13.92-33.752zM120 48c13.255 0 24 10.745 24 24s-10.745 24-24 24c-13.249-.014-23.986-10.751-24-24 0-13.255 10.745-24 24-24zM48 319.703c13.255 0 24 10.745 24 24s-10.745 24-24 24-24-10.745-24-24c.014-13.249 10.751-23.985 24-24zM80 464H16v-59.039c.016-11.571 9.393-20.947 20.965-20.961h22.07c11.571.014 20.949 9.39 20.965 20.961V464zm128-59.039V464h-64v-59.039c.016-11.571 9.393-20.947 20.965-20.961h22.07c11.572.014 20.949 9.39 20.965 20.961zm-32-85.258c13.249.014 23.986 10.751 24 24 0 13.255-10.745 24-24 24s-24-10.745-24-24 10.745-24 24-24zM240.723 82.32a10.29 10.29 0 01-6.039 5.922l-78.367 40.656A8.002 8.002 0 00152 136v175.908c-14.985 11.08-20.176 31.133-12.448 48.092H128V224h-16v136H84.448a39.63 39.63 0 003.522-16H88V144a8 8 0 00-15.632-2.398L48.48 217.617c-1.81 4.992-7.325 7.572-12.317 5.761a9.677 9.677 0 01-1.027-.441 9.82 9.82 0 01-4.468-12.703l21.355-73.609A38.65 38.65 0 0187.871 112h56.645a7.968 7.968 0 003.684-.898l79.512-41.273a9.848 9.848 0 0112.59 4.664 9.733 9.733 0 01.421 7.827zM331.913 372.269c15.823-15.416 16.153-40.741.737-56.564-15.416-15.823-40.741-16.153-56.564-.737-15.823 15.416-16.153 40.741-.737 56.564.243.249.489.495.738.737A36.857 36.857 0 00256 404.961V472a7.998 7.998 0 007.996 8H344a7.998 7.998 0 008-7.996v-67.043a36.855 36.855 0 00-20.087-32.692zM304 319.703c13.255 0 24 10.745 24 24s-10.745 24-24 24-24-10.745-24-24c.014-13.249 10.751-23.985 24-24zM336 464h-64v-59.039c.016-11.571 9.393-20.947 20.965-20.961h22.07c11.571.014 20.949 9.39 20.965 20.961V464zM459.913 372.269c15.823-15.416 16.153-40.741.737-56.564-15.416-15.823-40.741-16.153-56.564-.737-15.823 15.416-16.153 40.741-.737 56.564.243.249.489.495.738.737A36.857 36.857 0 00384 404.961V472a7.998 7.998 0 007.996 8H472a7.998 7.998 0 008-7.996v-67.043a36.855 36.855 0 00-20.087-32.692zM432 319.703c13.255 0 24 10.745 24 24s-10.745 24-24 24-24-10.745-24-24c.014-13.249 10.751-23.985 24-24zM464 464h-64v-59.039c.016-11.571 9.393-20.947 20.965-20.961h22.07c11.571.014 20.949 9.39 20.965 20.961V464z"/></svg><svg viewBox="0 0 512 512" id="services_introduction" xmlns="http://www.w3.org/2000/svg"><g data-name="OUTLINE"><path d="M472 16H40a24.027 24.027 0 00-24 24v352a24.027 24.027 0 0024 24h165.248l-19.2 64H160v16h192v-16h-26.048l-19.2-64H472a24.027 24.027 0 0024-24V40a24.027 24.027 0 00-24-24zM309.248 480H202.752l19.2-64h68.096zM480 392a8.01 8.01 0 01-8 8H40a8.01 8.01 0 01-8-8v-24h448zm0-40H32V40a8.01 8.01 0 018-8h432a8.01 8.01 0 018 8z"/><path d="M440 152H334.627a7.947 7.947 0 01-5.657-2.344l-22.627-22.627a23.843 23.843 0 00-16.97-7.029H200a24.027 24.027 0 00-24 24v168a24.027 24.027 0 0024 24h240a24.027 24.027 0 0024-24V176a24.027 24.027 0 00-24-24zm8 160a8.01 8.01 0 01-8 8H200a8.01 8.01 0 01-8-8V144a8.01 8.01 0 018-8h89.373a7.947 7.947 0 015.657 2.344l22.627 22.627a23.843 23.843 0 0016.97 7.029H440a8.01 8.01 0 018 8z"/><path d="M266.343 194.343L220.687 240l45.656 45.657 11.314-11.314L243.313 240l34.344-34.343zM297.076 276.257l40.03-71.987 13.983 7.775-40.03 71.987zM362.343 205.657L396.687 240l-34.344 34.343 11.314 11.314L419.313 240l-45.656-45.657zM202.794 64l12.955 30.219 28.57 11.838 30.579-12.219 15.819 15.819 11.313-11.314-23.275-23.277-34.326 13.717-16.54-6.853L213.343 48h-42.686l-14.545 33.93-16.541 6.853-34.325-13.717-30.179 30.18 13.716 34.325-6.853 16.54L48 170.657v42.686l33.929 14.546 6.854 16.54-13.717 34.325 30.179 30.18 34.326-13.717 17.366 7.196 6.126-14.781-23.382-9.689-30.579 12.219-15.264-15.264 12.219-30.579-11.839-28.571L64 202.794v-21.588l30.219-12.954 11.838-28.571-12.219-30.579 15.265-15.264 30.578 12.219 28.57-11.838L181.206 64z"/><path d="M163.56 134.648l-7.12-14.328a80.028 80.028 0 000 143.36l7.12-14.328a64.029 64.029 0 010-114.704z"/></g></svg><svg viewBox="0 0 64 64" id="services_introduction_2" xmlns="http://www.w3.org/2000/svg"><path d="M13 10.162L14.279 14H19v-2h-3.279L13 3.838l-3.186 9.556L8.618 11H5v2h2.382l2.804 5.606z"/><path d="M58 48c2.757 0 5-2.243 5-5V17a5.006 5.006 0 00-4.046-4.904C58.492 6.453 53.76 2 48 2c-5.728 0-10.442 4.402-10.949 10H23c0-6.065-4.935-11-11-11S1 5.935 1 12c0 3.468 1.642 6.707 4.364 8.77A6.977 6.977 0 003 26V31.675a9.758 9.758 0 006 9.014v2.808c-3.575 2.007-6 5.831-6 10.214V63h22.856v-.023a8.222 8.222 0 002.994-.72l8.136-3.698c.317-.144.603-.334.856-.559H42a2.996 2.996 0 002.816-2H60c1.654 0 3-1.346 3-3s-1.346-3-3-3h-6a1 1 0 01-1-1v-1zm0-2H23.488A11.783 11.783 0 0017 42.235v-1.47A4.178 4.178 0 0018.364 40H61v3c0 1.654-1.346 3-3 3zm-18 4h-1.764c-2.049 0-3.998.95-5.236 2.476V48h8v2.101A4.995 4.995 0 0040 50zm-13.186 5.623l-.51-3.568A11.585 11.585 0 0024.921 48H31v5.72zM13.618 26.999l.724-1.447a.994.994 0 01.895-.553H21a1.001 1.001 0 010 2zM48 4c4.963 0 9 4.038 9 9s-4.037 9-9 9-9-4.038-9-9 4.037-9 9-9zM37.051 14c.507 5.598 5.221 10 10.949 10 5.672 0 10.353-4.316 10.937-9.835A2.993 2.993 0 0161 17v21H19.676a4.146 4.146 0 00.168-1.602l-.74-7.399H21c1.654 0 3-1.346 3-3s-1.346-3-3-3h-2.101a4.965 4.965 0 00-.815-1.851A10.917 10.917 0 0022.796 14zM3 12c0-4.962 4.037-9 9-9s9 4.038 9 9c0 3.207-1.689 6.106-4.422 7.726A4.953 4.953 0 0014.001 19H10c-.997 0-1.944.213-2.803.59C4.604 17.945 3 15.09 3 12zm2 14c0-2.757 2.243-5 5-5h4.001c1.304 0 2.415.835 2.827 1.999h-1.592a2.984 2.984 0 00-2.684 1.658l-1.171 2.342H5zm0 5.675v-2.676h2.741A4.583 4.583 0 007 31.5c0 1.216.493 2.407 1.354 3.268l.646.646v3.043a7.756 7.756 0 01-4-6.782zm4.768 1.679A2.64 2.64 0 019 31.5c0-.7.272-1.358.768-1.854l.647-.647h6.68l.76 7.6a2.175 2.175 0 01-.629 1.762c-.406.406-.97.64-1.545.64H13v2h2v1.013c-.097-.003-.192-.014-.289-.014-1.298 0-2.543.221-3.711.613v-8.027zm18.254 27.083a6.23 6.23 0 01-2.6.563 6.247 6.247 0 01-6.021-4.48l-1.442-4.807-1.916.574 1.442 4.807A8.244 8.244 0 0020.044 61H5v-7.289C5 48.356 9.356 44 14.711 44c4.801 0 8.934 3.584 9.612 8.338l.593 4.147-1.33.605.828 1.82 5.921-2.692 1.171 2.634zm8.137-3.699l-2.831 1.287-1.171-2.635 2.778-1.263c.184-.083.388-.127.631-.127.79 0 1.434.644 1.434 1.434 0 .56-.33 1.072-.841 1.304zM42 56h-3.052c.032-.186.052-.374.052-.566a3.42 3.42 0 00-2.216-3.194c.466-.151.953-.24 1.452-.24H40c1.654 0 3 1.346 3 3a1 1 0 01-1 1zm12-4h6a1 1 0 010 2H44.899A4.988 4.988 0 0043 51.026V48h8v1c0 1.654 1.346 3 3 3z"/><path d="M57 42h2v2h-2zM49 42h2v2h-2zM53 42h2v2h-2zM42 8h2v2h-2zM46 8h8v2h-8zM42 12h2v2h-2zM46 12h8v2h-8zM42 16h2v2h-2zM46 16h8v2h-8zM36 28H26v8h10zm-2 6h-6v-4h6zM26 24h10v2H26zM26 20h10v2H26zM26 16h10v2H26zM38 34h2v2h-2zM42 34h17v2H42zM38 30h21v2H38zM38 26h21v2H38z"/></svg><svg viewBox="0 0 496 496" id="services_support" xmlns="http://www.w3.org/2000/svg"><path d="M402.524 432l-18.52-55.568a56.001 56.001 0 00-43.112-37.384l-53.464-9.728v-4.144c9.304-5.4 17.4-12.624 23.848-21.176h16.152c13.232 0 24-10.768 24-24v-96c0-57.344-46.656-104-104-104s-104 46.656-104 104v56c0 15.424 10.968 28.328 25.512 31.336 4.488 22.992 18.856 42.448 38.488 53.84v4.144l-53.472 9.728a55.99 55.99 0 00-43.104 37.384l-3.2 9.608-27.248-27.248c-3.12-3.12-3.12-8.2 0-11.32l31.6-31.592-59.312-59.312L16.98 292.28C6.404 302.856.58 316.92.58 331.88s5.824 29.016 16.4 39.592l108.12 108.12C135.676 490.168 149.74 496 164.7 496s29.016-5.832 39.344-16.168l38.968-35.704L230.86 432h171.664zm-67.096-152c0 4.416-3.592 8-8 8H320.7a79.46 79.46 0 005.216-16.664c3.424-.712 6.576-2.072 9.512-3.784V280zm-8-26.224v-27.552c4.76 2.776 8 7.88 8 13.776s-3.24 11-8 13.776zm-160 0c-4.76-2.776-8-7.88-8-13.776s3.24-11 8-13.776v27.552zm0-53.776v9.136a31.73 31.73 0 00-8 3.312V184c0-48.52 39.48-88 88-88s88 39.48 88 88v28.448a31.44 31.44 0 00-8-3.312V200h-8c-23.656 0-45.896-9.216-62.632-25.944l-9.368-9.368-9.368 9.368C221.324 190.784 199.084 200 175.428 200h-8zm16 56v-40.304c24.024-1.808 46.424-11.72 64-28.432 17.576 16.712 39.976 26.632 64 28.432V256c0 11.664-3.184 22.576-8.656 32h-55.344v16h42.192c-11.28 9.928-26.024 16-42.192 16-35.288 0-64-28.712-64-64zm88 76.312v.376l-24 24-24-24v-.376c7.584 2.384 15.64 3.688 24 3.688s16.416-1.304 24-3.688zM126.02 381.488a40.014 40.014 0 0130.792-26.712l55.92-10.16 34.696 34.696 34.688-34.688 55.912 10.16a40 40 0 0130.792 26.712L380.332 416H214.86l-31.16-31.16-34.624 31.32c-3.016 3.032-8.288 3.032-11.312 0l-17.472-17.472 5.728-17.2zM52.684 279.192l36.688 36.688-8.688 8.688-36.688-36.688 8.688-8.688zm140.28 189.104c-7.552 7.536-17.6 11.704-28.28 11.704s-20.728-4.168-28.288-11.72L28.276 360.168c-7.552-7.552-11.712-17.6-11.712-28.28 0-10.688 4.16-20.736 11.712-28.288l4.4-4.4 36.688 36.688-.288.288c-9.352 9.36-9.352 24.584 0 33.944l57.368 57.368c4.536 4.528 10.56 7.032 16.976 7.032s12.44-2.496 16.68-6.752l.6-.536 36.856 36.856-4.592 4.208zm16.4-15.04l-36.776-36.776 10.568-9.552 36.712 36.712-10.504 9.616zM471.428 0h-112c-13.232 0-24 10.768-24 24v64c0 13.232 10.768 24 24 24h21.368l-8.272 48.248 77.2-48.248h21.704c13.232 0 24-10.768 24-24V24c0-13.232-10.768-24-24-24zm8 88c0 4.408-3.592 8-8 8h-26.296l-50.808 31.752L399.772 96h-40.344c-4.408 0-8-3.592-8-8V24c0-4.408 3.592-8 8-8h112c4.408 0 8 3.592 8 8v64z"/><path d="M367.428 32h96v16h-96zM367.428 64h64v16h-64zM447.428 64h16v16h-16zM247.428 24C142.9 24 52.86 96.304 29.452 197.16l-15.16-25.272-13.72 8.232 28.12 46.856 46.856-28.12-8.232-13.72-21.68 13.008C68.308 105.88 151.276 40 247.428 40c21.016 0 41.752 3.12 61.632 9.28L313.796 34c-21.416-6.64-43.744-10-66.368-10zM491.54 177.136l-46.856-28.12-28.112 46.864 13.72 8.232 14-23.336c7.368 21.56 11.136 44.112 11.136 67.224 0 47.576-16.48 94.088-46.392 130.96l12.424 10.08c32.224-39.712 49.968-89.808 49.968-141.04 0-24.472-3.944-48.368-11.632-71.248l23.512 14.104 8.232-13.72z"/></svg><svg viewBox="0 0 20 20" id="sidebar_link" xmlns="http://www.w3.org/2000/svg"><path d="M14.167 10v-.075a.733.733 0 00-.05-.233.6.6 0 00-.092-.159.835.835 0 00-.075-.108l-2.383-2.5a.834.834 0 10-1.209 1.15l1.025 1.092H6.667a.833.833 0 100 1.666h4.658l-1.083 1.075a.834.834 0 00.27 1.366.834.834 0 00.913-.182l2.5-2.5a.835.835 0 00.175-.267.833.833 0 00.067-.325z"/></svg><svg viewBox="0 0 18 19" id="social_facebook" xmlns="http://www.w3.org/2000/svg"><g clip-path="url(#btclip0_377_8853)"><path d="M7.6 18.03v-7.77H5.763V7.461H7.6v-2.39c0-1.878 1.086-3.602 3.586-3.602 1.012 0 1.761.109 1.761.109l-.059 2.612s-.764-.008-1.597-.008c-.901 0-1.046.465-1.046 1.236v2.043h2.715l-.118 2.797h-2.597v7.771H7.6z"/></g><defs><clipPath id="btclip0_377_8853"><path fill="#fff" transform="translate(5.76 1.47)" d="M0 0h7.2v16.56H0z"/></clipPath></defs></svg><svg viewBox="0 0 18 19" id="social_instagram" xmlns="http://www.w3.org/2000/svg"><path d="M9 7.407A2.348 2.348 0 006.657 9.75 2.348 2.348 0 009 12.093a2.348 2.348 0 002.343-2.343A2.348 2.348 0 009 7.407zm7.028 2.343c0-.97.009-1.932-.046-2.9-.054-1.125-.311-2.124-1.134-2.946-.824-.825-1.82-1.08-2.946-1.134-.97-.055-1.932-.046-2.9-.046-.97 0-1.932-.009-2.9.046-1.126.054-2.124.31-2.947 1.134-.824.824-1.079 1.82-1.133 2.946-.055.97-.046 1.931-.046 2.9 0 .969-.009 1.932.046 2.9.054 1.125.31 2.124 1.133 2.947.825.824 1.821 1.079 2.946 1.133.97.055 1.932.046 2.9.046.971 0 1.933.009 2.901-.046 1.125-.054 2.124-.31 2.946-1.133.825-.825 1.08-1.822 1.134-2.947.056-.968.046-1.93.046-2.9zM9 13.355A3.6 3.6 0 015.395 9.75 3.6 3.6 0 019 6.145a3.6 3.6 0 013.605 3.605A3.6 3.6 0 019 13.355zm3.753-6.516a.84.84 0 110-1.684.84.84 0 110 1.684z"/></svg><svg viewBox="0 0 18 19" id="social_odn" xmlns="http://www.w3.org/2000/svg"><g clip-path="url(#bvclip0_377_8857)"><path d="M12.884 12.273c-.925.563-2.197.786-3.037.87l.705.666 2.575 2.468c.941.925-.59 2.37-1.542 1.478-.645-.627-1.59-1.533-2.575-2.477l-2.574 2.474c-.952.89-2.484-.57-1.532-1.478.654-.628 1.589-1.533 2.574-2.468l.695-.666c-.83-.085-2.122-.295-3.057-.87-1.1-.68-1.582-1.077-1.157-1.909.25-.472.935-.87 1.842-.184 0 0 1.225.935 3.202.935 1.978 0 3.203-.935 3.203-.935.907-.683 1.589-.288 1.842.184.418.832-.064 1.23-1.164 1.912zm-8.26-6.608C4.624 3.345 6.59 1.47 9 1.47c2.41 0 4.376 1.876 4.376 4.195 0 2.31-1.967 4.185-4.376 4.185-2.41 0-4.376-1.876-4.376-4.185zm2.227 0c0 1.135.965 2.06 2.149 2.06 1.184 0 2.15-.925 2.15-2.06 0-1.145-.966-2.07-2.15-2.07s-2.15.925-2.15 2.07z"/></g><defs><clipPath id="bvclip0_377_8857"><path fill="#fff" transform="translate(3.6 1.47)" d="M0 0h10.8v16.56H0z"/></clipPath></defs></svg><svg viewBox="0 0 18 19" id="social_telegram" xmlns="http://www.w3.org/2000/svg"><path d="M15.499 3.538L2.2 8.665c-.907.365-.902.871-.166 1.097l3.414 1.065 7.899-4.984c.373-.227.714-.105.434.144l-6.4 5.776h-.001.001l-.235 3.52c.345 0 .497-.159.69-.345l1.659-1.613 3.449 2.548c.636.35 1.093.17 1.251-.589l2.264-10.67c.232-.93-.355-1.35-.961-1.076z"/></svg><svg viewBox="0 0 18 19" id="social_vk" xmlns="http://www.w3.org/2000/svg"><g clip-path="url(#bxclip0_377_8848)"><path fill-rule="evenodd" clip-rule="evenodd" d="M15.856 6.268c.104-.342 0-.593-.497-.593h-1.64c-.418 0-.61.217-.715.456 0 0-.834 1.998-2.016 3.295-.382.377-.556.496-.765.496-.104 0-.261-.12-.261-.461V6.268c0-.41-.115-.593-.463-.593H6.92c-.26 0-.417.19-.417.37 0 .389.591.479.652 1.571V9.99c0 .52-.096.615-.305.615-.556 0-1.909-2.007-2.712-4.303-.156-.447-.313-.627-.733-.627H1.763c-.47 0-.563.217-.563.456 0 .427.556 2.544 2.59 5.345 1.357 1.912 3.266 2.949 5.006 2.949 1.043 0 1.172-.23 1.172-.627v-1.446c0-.46.098-.552.429-.552.244 0 .66.12 1.634 1.042 1.113 1.093 1.296 1.583 1.922 1.583h1.64c.47 0 .704-.23.57-.685-.15-.453-.68-1.11-1.385-1.889-.382-.444-.956-.922-1.13-1.161-.244-.307-.174-.444 0-.717 0 0 2-2.766 2.208-3.705z"/></g><defs><clipPath id="bxclip0_377_8848"><path fill="#fff" transform="translate(1.2 2.55)" d="M0 0h15v15H0z"/></clipPath></defs></svg><svg viewBox="0 0 48 48" id="word-icon" xmlns="http://www.w3.org/2000/svg"><path fill="#2d92d4" d="M42.256 6H15.744C14.781 6 14 6.781 14 7.744v7.259h30V7.744C44 6.781 43.219 6 42.256 6z"/><path fill="#2150a9" d="M14 33.054v7.202c0 .963.781 1.744 1.743 1.744h26.513c.963 0 1.744-.781 1.744-1.744v-7.202H14z"/><path fill="#2d83d4" d="M14 15.003h30v9.002H14z"/><path fill="#2e70c9" d="M14 24.005h30v9.05H14z"/><path fill="#00488d" d="M22.319 34H5.681A1.682 1.682 0 014 32.319V15.681C4 14.753 4.753 14 5.681 14h16.638c.928 0 1.681.753 1.681 1.681v16.638c0 .928-.753 1.681-1.681 1.681z"/><path fill="#fff" d="M18.403 19l-1.546 7.264L15.144 19h-2.187l-1.767 7.489L9.597 19H7.641l2.344 10h2.352l1.713-7.689L15.764 29h2.251l2.344-10z"/></svg></svg>